<?xml version="1.0" encoding="utf-8"?>
<!-- Generator: Adobe Illustrator 27.4.0, SVG Export Plug-In . SVG Version: 6.00 Build 0)  -->
<svg version="1.1" id="Layer_1" xmlns="http://www.w3.org/2000/svg" xmlns:xlink="http://www.w3.org/1999/xlink" x="0px" y="0px"
	 viewBox="0 0 500 500" style="enable-background:new 0 0 500 500;" xml:space="preserve">
<style type="text/css">
	.st0{fill:none;}
</style>
<g>
	<path class="st0" d="M200.4,272.3c-0.2-0.7-0.4-1.3-0.7-1.7c-0.4-0.3-0.8-0.4-1.1-0.4c-0.4,0-0.7,0-1.1,0.2c-0.3,0.1-0.7,0.3-1,0.6
		c-0.3,0.2-0.6,0.5-0.9,0.7c0,0.1,0,0.2,0,0.2c0.1,0,0.1,0.1,0,0.1c-0.3,0.4-0.6,0.9-0.8,1.3c-0.2,0.5-0.3,1-0.5,1.5
		c-0.1,0.5-0.2,1-0.3,1.5c-0.1,0.5-0.2,1-0.3,1.4c0,0.4,0,0.9,0,1.5c0,0.5,0,1-0.1,1.4c0,0.4,0,1,0,1.5c0,0.6,0,1.1,0,1.7
		c0,0.6,0.1,1.1,0.1,1.7c0.1,0.5,0.3,1,0.6,1.3c0.1,0.4,0.3,0.8,0.7,1c0.3,0.3,0.7,0.5,1.1,0.6c0.4,0.1,0.8,0.1,1.3,0.1
		c0.4,0,0.8-0.2,1.2-0.4c0.6-0.7,1.1-1.5,1.3-2.6c0.2-1,0.4-2.1,0.6-3.1c0.2-1.2,0.4-2.6,0.4-4c0-1.4-0.1-2.8-0.5-4.1
		C200.7,273.6,200.6,273,200.4,272.3z"/>
	<path class="st0" d="M195.7,264.7C195.7,264.6,195.6,264.6,195.7,264.7C195.6,264.8,195.7,264.8,195.7,264.7z"/>
	<path class="st0" d="M260.8,249.9c0.1-0.3,0.2-0.6,0.5-0.8c0.2-0.2,0.5-0.5,0.7-0.7c0.3-0.2,0.5-0.5,0.8-0.7
		c0.3-0.2,0.4-0.5,0.6-0.8c1.3-1.1,2.6-2.2,3.8-3.5c0.3-0.4,0.7-0.8,1.1-1.1c0.8,0,1.5,0,2.3,0c3.4,0.1,6.7,0.1,10,0.1
		c3.7,0,7.4-0.1,11.1-0.2c0-1.1,0-2.3,0-3.5c0-3.2,0.1-6.2,0.2-9.2c0.1-4.2,0.3-8.4,0.5-12.6c0.1-1.6,0.1-3.2,0.1-4.8
		c-4.9-0.2-9.9-0.3-15-0.3c-6.2,0-12.2-0.1-18-0.2c-0.5,0.1-1.1,0.2-1.8,0.2c-0.6,0-1.3,0-2,0c-0.7,0-1.4-0.1-2-0.1
		c-0.7,0-1.3,0-1.8,0.2c-3.3-0.2-6.6-0.2-10-0.2c-3.4,0.1-6.8,0.1-10.2,0.2c-3.5,0.1-6.9,0.1-10.4,0.2c-2.9,0-5.8-0.1-8.7-0.3
		c0,0.9,0,1.9,0,2.8c0,3.1-0.1,6.1-0.2,9c0.1,0.3,0.2,0.6,0.2,0.9c0,0.3,0,0.7,0,1c0,0.3-0.1,0.7-0.1,1c0,0.3,0,0.6,0.2,0.9
		c-0.2,1.6-0.2,3.3-0.2,5c0.1,1.7,0.1,3.4,0.2,5.1c0.1,1.3,0.1,2.7,0.1,4c3.2,0,6.5,0.1,10,0.1c0.4,0,0.8,0,1.2,0
		c3.9,0,7.8,0,11.6,0.1c1.2,1.3,2.5,2.6,3.6,3.8c1.5,1.6,3,3.2,4.4,4.8c1.6,1.7,3.2,3.4,4.7,5.1c1.1,1.2,2.2,2.3,3.3,3.4
		c0.9-0.8,1.7-1.6,2.5-2.4c2.2-2.2,4.3-4.2,6.4-6.1C260.6,250.1,260.7,250,260.8,249.9z M266,224.8c-1.7-1.8-3.4-3.5-5.2-5
		c0-0.1,0-0.1,0-0.2c0-0.1,0-0.1,0-0.2c0.3-0.1,0.5-0.3,0.7-0.5c0.2-0.2,0.4-0.4,0.6-0.7c0.2-0.2,0.4-0.5,0.6-0.7
		c0.2-0.3,0.4-0.5,0.6-0.7c0.1-0.1,0.2-0.2,0.4-0.4s0.3-0.3,0.5-0.5c0.2-0.2,0.3-0.3,0.5-0.4c0.2-0.1,0.3-0.2,0.4-0.2
		c0.2,0,0.4,0.1,0.6,0.3c0.1,0.2,0.3,0.3,0.5,0.3c1,1.4,2.2,2.7,3.4,3.9c0.8,0.8,1.6,1.7,2.4,2.5c0.6-0.5,1.2-1.1,1.8-1.6
		c1.8-1.7,3.5-3.4,5-5.2c0.1,0,0.1,0,0.2,0c0.1,0,0.1,0,0.2,0c0.1,0.3,0.3,0.5,0.5,0.7c0.2,0.2,0.4,0.4,0.7,0.6
		c0.2,0.2,0.5,0.4,0.7,0.6c0.3,0.2,0.5,0.4,0.7,0.6c0.1,0.1,0.2,0.2,0.4,0.4s0.3,0.3,0.5,0.5c0.2,0.2,0.3,0.3,0.4,0.5
		c0.1,0.2,0.2,0.3,0.2,0.4c0,0.2-0.1,0.4-0.3,0.6c-0.2,0.1-0.3,0.3-0.3,0.5c-1.4,1-2.7,2.2-3.9,3.4c-0.8,0.8-1.6,1.6-2.4,2.3
		c0.2,0.2,0.3,0.4,0.5,0.5c0.7,0.6,1.4,1.3,2.2,1.9c0.7,0.6,1.5,1.3,2.2,2c0.7,0.7,1.3,1.4,1.9,2.2c0.1,0.2,0.1,0.4,0,0.6
		c-0.1,0.2-0.2,0.4-0.4,0.5s-0.3,0.3-0.5,0.5c-0.2,0.2-0.3,0.3-0.4,0.5c-0.3,0.1-0.5,0.3-0.8,0.6c-0.2,0.3-0.5,0.5-0.7,0.8
		c-0.2,0.3-0.5,0.5-0.8,0.7c-0.3,0.2-0.6,0.3-0.9,0.3c-1-1.2-2.2-2.4-3.5-3.7c-1-1.1-2-2.1-3-3.2c-0.1,0.1-0.3,0.3-0.4,0.4
		c-0.6,0.7-1.3,1.4-1.9,2.2c-0.6,0.7-1.3,1.5-2,2.2c-0.7,0.7-1.4,1.3-2.2,1.9c-0.2,0.1-0.4,0.1-0.6,0c-0.2-0.1-0.4-0.2-0.5-0.4
		c-0.2-0.2-0.3-0.3-0.5-0.5c-0.2-0.2-0.3-0.3-0.5-0.4c-0.1-0.3-0.3-0.5-0.6-0.8c-0.3-0.2-0.5-0.5-0.8-0.7c-0.3-0.2-0.5-0.5-0.7-0.8
		c-0.2-0.3-0.3-0.6-0.3-0.9c1.2-1,2.4-2.2,3.7-3.5c1.1-1.1,2.2-2.1,3.3-3.1C267.1,225.9,266.6,225.3,266,224.8z M236.9,227.1
		c0.7,0.6,1.4,1.3,2.2,1.9c0.7,0.6,1.5,1.3,2.2,2c0.7,0.7,1.3,1.4,1.9,2.2c0.1,0.2,0.1,0.4,0,0.6c-0.1,0.2-0.2,0.4-0.4,0.5
		s-0.3,0.3-0.5,0.5c-0.2,0.2-0.3,0.3-0.4,0.5c-0.3,0.1-0.5,0.3-0.8,0.6c-0.2,0.3-0.5,0.5-0.7,0.8c-0.2,0.3-0.5,0.5-0.8,0.7
		c-0.3,0.2-0.6,0.3-0.9,0.3c-1-1.2-2.2-2.4-3.5-3.7c-1-1.1-2-2.1-3-3.2c-0.1,0.1-0.3,0.3-0.4,0.4c-0.6,0.7-1.3,1.4-1.9,2.2
		c-0.6,0.7-1.3,1.5-2,2.2c-0.7,0.7-1.4,1.3-2.2,1.9c-0.2,0.1-0.4,0.1-0.6,0c-0.2-0.1-0.4-0.2-0.5-0.4c-0.2-0.2-0.3-0.3-0.5-0.5
		c-0.2-0.2-0.3-0.3-0.5-0.4c-0.1-0.3-0.3-0.5-0.6-0.8c-0.3-0.2-0.5-0.5-0.8-0.7c-0.3-0.2-0.5-0.5-0.7-0.8c-0.2-0.3-0.3-0.6-0.3-0.9
		c1.2-1,2.4-2.2,3.7-3.5c1.1-1.1,2.2-2.1,3.3-3.1c-0.5-0.6-1-1.1-1.5-1.7c-1.7-1.8-3.4-3.5-5.2-5c0-0.1,0-0.1,0-0.2
		c0-0.1,0-0.1,0-0.2c0.3-0.1,0.5-0.3,0.7-0.5c0.2-0.2,0.4-0.4,0.6-0.7c0.2-0.2,0.4-0.5,0.6-0.7c0.2-0.3,0.4-0.5,0.6-0.7
		c0.1-0.1,0.2-0.2,0.4-0.4c0.1-0.2,0.3-0.3,0.5-0.5c0.2-0.2,0.3-0.3,0.5-0.4c0.2-0.1,0.3-0.2,0.4-0.2c0.2,0,0.4,0.1,0.6,0.3
		c0.1,0.2,0.3,0.3,0.5,0.3c1,1.4,2.2,2.7,3.4,3.9c0.8,0.8,1.6,1.7,2.4,2.5c0.6-0.5,1.2-1.1,1.8-1.6c1.8-1.7,3.5-3.4,5-5.2
		c0.1,0,0.1,0,0.2,0c0.1,0,0.1,0,0.2,0c0.1,0.3,0.3,0.5,0.5,0.7c0.2,0.2,0.4,0.4,0.7,0.6c0.2,0.2,0.5,0.4,0.7,0.6
		c0.3,0.2,0.5,0.4,0.7,0.6c0.1,0.1,0.2,0.2,0.4,0.4s0.3,0.3,0.5,0.5c0.2,0.2,0.3,0.3,0.4,0.5c0.1,0.2,0.2,0.3,0.2,0.4
		c0,0.2-0.1,0.4-0.3,0.6c-0.2,0.1-0.3,0.3-0.3,0.5c-1.4,1-2.7,2.2-3.9,3.4c-0.8,0.8-1.6,1.6-2.4,2.3
		C236.6,226.8,236.7,227,236.9,227.1z"/>
	<path class="st0" d="M273.4,282C273.4,282,273.4,282,273.4,282c0,0.2,0,0.2,0,0.2C273.5,282.2,273.5,282.2,273.4,282
		C273.5,282,273.5,282,273.4,282z"/>
	<path class="st0" d="M279.6,278.7c0.1-0.1,0-0.1-0.1-0.1C279.5,278.7,279.5,278.8,279.6,278.7z"/>
	<rect x="187.9" y="288.9" class="st0" width="0.1" height="0.1"/>
	<path class="st0" d="M80.8,270.4c-0.6-0.2-1.3-0.5-1.9-0.7c-0.7-0.2-1.3-0.2-2,0c0,0.1,0,0.3-0.1,0.5c-0.1,0.2,0,0.3,0.1,0.2
		c0,0.9-0.1,1.8-0.2,2.7c-0.1,0.9-0.1,1.8,0,2.8c0.7,0,1.4,0,2,0c0.6,0,1.2-0.2,1.7-0.6c0.5-0.1,0.9-0.3,1.1-0.8
		c0.2-0.4,0.4-0.9,0.4-1.5c0-0.5-0.1-1.1-0.2-1.6C81.4,271.1,81.1,270.7,80.8,270.4z"/>
	<path class="st0" d="M126.3,273.7c0,0.2-0.1,0.2-0.2,0.2c0,0.1,0,0.1,0.1,0.1c0.1,0,0.1,0.1,0,0.2c0,0.1,0,0.2-0.1,0.2
		c-0.1,0-0.1,0.1-0.1,0.2c0.1,0.1,0.1,0.1,0,0.2c0,0.1-0.1,0.2-0.1,0.3c0,0.9-0.2,1.8-0.4,2.6c-0.3,0.8-0.5,1.8-0.6,2.8
		c-0.1,0.1-0.2,0.1-0.3,0.1c0.2,0.3,0.2,0.7,0.1,1c-0.1,0.3-0.2,0.7-0.2,1.1c0.7,0,1.4-0.1,2.1-0.2c0.7-0.1,1.4-0.2,2.2-0.2
		c-0.4-1.2-0.8-2.6-1.2-4.2C127.3,276.6,126.8,275.2,126.3,273.7z"/>
	<path class="st0" d="M69.6,281C69.6,281,69.5,281,69.6,281C69.6,281,69.6,281,69.6,281z"/>
	<path d="M88.2,269c-0.2-1.1-0.7-2.1-1.5-3.1c-0.8-0.9-1.6-1.7-2.4-2.3c-0.7-0.2-1.5-0.4-2.4-0.6c-0.9-0.1-1.7-0.2-2.6-0.2
		c-0.9,0-1.8,0-2.6,0c-0.9,0.1-1.7,0.1-2.4,0.2c-0.6-0.1-1.2-0.2-1.8-0.1c-0.6,0.1-1.3,0.1-2.1,0.1c-0.3,0.1-0.5,0.3-0.5,0.5
		c-0.1,0.2-0.1,0.4-0.1,0.6c0,0.2,0,0.5,0,0.7c0,0.2,0,0.5,0,0.8c0.1,1.6,0.2,3.3,0.1,5.1c0,1.8-0.1,3.5-0.2,5
		c0.1,0.8,0.1,1.6,0.1,2.4c-0.1,0.8-0.1,1.6,0,2.4c0,0.1,0,0.1-0.1,0.2c0,0-0.1,0.1-0.1,0.2h0.1c0,0,0,0,0,0c0,0,0,0,0,0
		c-0.1,2.4-0.1,4.9,0,7.4c0.1,2.5,0.2,5,0.4,7.4c-0.1,0.1-0.2,0.1-0.2,0.1c-0.1,0-0.1,0.1-0.1,0.2c0.1,0.1,0.3,0.3,0.4,0.4
		c0.1,0.2,0.2,0.3,0.4,0.4c0.5-0.2,1.1-0.3,1.8-0.2c0.7,0.1,1.4,0.1,2,0.1c0.7,0,1.2-0.1,1.7-0.3c0.5-0.2,0.8-0.7,0.9-1.5
		c-0.1-0.2-0.1-0.5-0.1-0.7c0-0.2,0-0.5-0.1-0.8c0.1-0.3,0.1-0.7,0.1-1.1c0-0.4,0-0.8,0-1.3c0-0.4,0-0.9,0-1.3c0-0.4,0-0.8-0.1-1.1
		c0.1-0.7,0-1.4,0-2.2c-0.1-0.8,0-1.5,0.3-2.3c0.1-0.1,0.2,0,0.2,0c0,0.1,0,0.1,0.1,0.2c0.2-0.1,0.4-0.2,0.7-0.2c0.3,0,0.6,0,1,0
		c0.3,0,0.7,0,1,0c0.3,0,0.7-0.1,0.9-0.2c0.4,0.1,0.7,0,1.1,0c0.4-0.1,0.7-0.2,1.1-0.3c0.3-0.1,0.7-0.2,1-0.4
		c0.3-0.1,0.6-0.2,0.9-0.3c1-0.6,1.8-1.5,2.5-2.5c0.7-1.1,1.2-2.3,1.5-3.6c0.3-1.3,0.4-2.6,0.3-4C89,271.5,88.7,270.2,88.2,269z
		 M81.5,274.6c-0.2,0.4-0.6,0.7-1.1,0.8c-0.5,0.4-1.1,0.7-1.7,0.6c-0.6,0-1.3,0-2,0c-0.1-1-0.1-1.9,0-2.8c0.1-0.9,0.2-1.8,0.2-2.7
		c-0.1,0.1-0.1,0-0.1-0.2c0.1-0.2,0.1-0.4,0.1-0.5c0.6-0.2,1.3-0.2,2,0c0.7,0.2,1.3,0.4,1.9,0.7c0.4,0.2,0.6,0.6,0.8,1.2
		c0.2,0.5,0.3,1.1,0.2,1.6C81.8,273.7,81.7,274.2,81.5,274.6z"/>
	<path d="M112.4,267.2c-0.1-0.6-0.2-1.2-0.3-1.7c0-0.6-0.1-1.1-0.1-1.7c-0.3-0.4-0.7-0.6-1.1-0.6c-0.4,0-0.8,0-1.3,0.1
		c-0.4,0.1-0.9,0.2-1.3,0.3c-0.4,0.1-0.8,0.1-1.2-0.1c-0.1,0.1-0.3,0.1-0.5,0.1c-0.2,0-0.4,0-0.6-0.1c-0.2,0-0.4,0-0.6-0.1
		c-0.2,0-0.4,0-0.5,0.1c-0.1,0.2-0.2,0.4-0.3,0.4c0,0.3-0.1,0.6-0.1,0.8c0,0.2-0.1,0.5-0.2,0.7c0.1,1.2,0.2,2.5,0.1,4
		c0,1.5,0,3,0,4.6c-0.4,0.1-0.8,0.1-1.2,0.2c-0.4,0.1-0.8,0.2-1.2,0.3c-0.4,0.1-0.8,0.1-1.3,0.2c-0.4,0-0.9,0-1.4-0.2
		c0-0.2,0-0.4-0.1-0.6c0-0.2-0.1-0.3-0.1-0.5c0-0.1,0-0.2,0.1-0.2c0.1,0,0.1,0,0.1-0.1c-0.1-0.2-0.1-0.3-0.1-0.5
		c0-0.2-0.1-0.4-0.2-0.6c0.2-0.2,0.3-0.5,0.3-0.9c0-0.4,0-0.8,0-1.2c0-0.4,0-0.8,0-1.2c0-0.4,0-0.7,0.1-0.9
		c-0.2-0.1-0.2-0.3-0.1-0.5c0.1-0.2,0.1-0.4,0-0.5c0.1,0,0.1-0.1,0.1-0.1c0,0,0,0,0.1,0c-0.1-0.7-0.2-1.3-0.2-1.8
		c0-0.6-0.1-1.2-0.3-2c-0.2-0.1-0.3-0.1-0.3-0.2c-0.2,0.1-0.4,0.1-0.5,0.2c-0.6-0.1-1.2-0.1-1.8-0.1c-0.6,0-1.2,0-1.7,0.1
		c-0.6,0-1.1,0.1-1.6,0.1c-0.5,0-1.1,0-1.6,0c-0.1,0.1-0.1,0.2-0.2,0.2c-0.1,0.7-0.1,1.3-0.1,1.9c0,0.5,0.1,1.1,0.3,1.7
		c0.1,5,0.2,9.9,0.3,14.9c0.2,5,0.4,9.8,0.7,14.5c0.2,0.3,0.5,0.5,0.8,0.5c0.3,0,0.6,0,1-0.2c0.3,0.1,0.6,0.2,0.9,0.2
		c0.3,0,0.7,0,1,0c0.3,0,0.7,0,1,0c0.3,0,0.6,0,0.9,0.1c0-0.1,0.1-0.2,0.2-0.1c0.1,0,0.2,0,0.2,0c0.1-0.1,0.1-0.1,0.1-0.2
		c0-0.1,0-0.2,0-0.2c0.1,0.1,0.1,0.1,0.2,0c0.1,0,0.2,0,0.3,0c0-0.1,0.1-0.2,0.2-0.3c0.1-0.1,0.2-0.2,0.3-0.2c0-1.7,0-3.3,0-5
		c0-1.7,0-3.3,0-4.8c0.1,0,0.1,0,0.1,0c0,0,0,0,0.1,0c-0.1-0.6-0.1-1.1-0.1-1.6c0-0.5,0-1,0-1.5c0.4,0,0.9-0.1,1.3-0.1
		c0.5-0.1,0.9-0.1,1.4-0.2c0.5-0.1,0.9-0.1,1.3-0.1c0.4,0,0.8,0,1.2,0.1c0,2.6-0.1,5.1-0.2,7.6c-0.1,2.5-0.2,4.8-0.1,7
		c1.3,0,2.6-0.1,3.7-0.1c1.2,0,2.4-0.1,3.9-0.1c0.3-0.7,0.4-1.4,0.4-2.1c0-0.7,0-1.5,0-2.4c-0.1,0-0.1,0-0.1,0c0,0,0,0-0.1,0
		c-0.1-1.8-0.1-3.6-0.1-5.3c0-1.7,0-3.4,0-5.1c0-1.7,0-3.3,0-5c0-1.7,0-3.4-0.1-5.2c0.1,0,0.1,0,0.1,0c0,0,0,0,0.1,0
		c-0.1-0.3-0.1-0.6,0-1c0-0.4,0.1-0.7,0.1-1.1c0-0.4,0-0.7,0-1.1c0-0.4-0.1-0.7-0.2-1.1C112.3,267.3,112.4,267.3,112.4,267.2z"/>
	<path d="M138.9,296.2c-0.1,0-0.1,0-0.1,0.1c0,0.1,0,0.1-0.1,0c0.1-0.5,0.1-1,0.1-1.4c-0.1-0.5-0.2-1-0.3-1.4
		c-0.1-0.5-0.3-0.9-0.4-1.4c-0.1-0.5-0.2-0.9-0.2-1.4c-0.1,0-0.1,0-0.1,0c0,0-0.1,0-0.1-0.1c0.1,0,0.1,0,0.2,0
		c-0.2-0.7-0.4-1.3-0.6-2c-0.2-0.7-0.3-1.4-0.4-2.2c-0.1,0-0.1,0-0.1,0.1c0,0.1,0,0.1-0.1,0.1c0-0.4-0.1-0.9-0.2-1.4
		c-0.1-0.5-0.3-1-0.4-1.5c-0.2-0.5-0.3-1-0.5-1.5c-0.2-0.5-0.3-1-0.3-1.4c-0.2-0.1-0.3-0.4-0.2-0.7c0-0.1,0-0.1-0.1-0.1
		c-0.1,0-0.1,0-0.1-0.1c-0.2-0.9-0.4-1.8-0.7-2.7c-0.3-0.9-0.5-1.8-0.8-2.5c-0.1-0.9-0.2-1.7-0.5-2.5c-0.2-0.8-0.5-1.6-0.7-2.4
		c-0.2-0.8-0.5-1.6-0.7-2.4c-0.2-0.8-0.3-1.7-0.3-2.6c-0.1,0-0.2-0.1-0.2-0.2c0-0.1,0-0.3-0.1-0.4c-1.1,0-2.3,0-3.6,0
		c-1.3,0-2.6-0.1-3.9-0.3c-0.1,0.1-0.1,0.2-0.2,0.2c-0.1,0-0.2,0.1-0.3,0.1c-0.2,1.8-0.7,3.6-1.2,5.3c0.1,0.1,0.1,0.3,0,0.5
		c-0.1,0.2-0.1,0.3-0.1,0.5c-0.6,1.5-1,3.1-1.5,4.7c-0.4,1.7-0.8,3.3-1.2,5c-0.4,1.7-0.8,3.3-1.3,5c-0.4,1.6-1,3.2-1.6,4.6
		c0,0.5-0.1,1-0.3,1.5c-0.2,0.5-0.3,0.9-0.5,1.4c-0.2,0.5-0.3,0.9-0.4,1.4c-0.1,0.4-0.2,0.9-0.1,1.2c-0.1,0-0.2,0.1-0.2,0.1
		c0,0.1-0.1,0.1-0.2,0c0,0.2,0.1,0.4,0.1,0.5c0,0.1,0.1,0.3,0.1,0.5c1.2,0.3,2.3,0.4,3.5,0.4c1.2,0,2.3-0.1,3.2-0.3
		c0-0.3,0.1-0.5,0.2-0.7c0.1-0.2,0.1-0.4,0-0.6c0.2-0.2,0.3-0.5,0.3-0.7c0-0.2,0-0.5,0.2-0.7c-0.1,0-0.2,0-0.2,0
		c0.3-0.3,0.5-0.6,0.4-1c0-0.4,0-0.8,0.1-1.1c0.1-0.1,0.1-0.1,0.2-0.1c0.1,0,0.1,0,0.2,0c-0.1-0.4,0-0.8,0.2-1.3
		c0.2-0.5,0.3-1,0.5-1.5c0.6,0.1,1.1,0.1,1.7,0.1c0.5,0,1.1,0,1.6,0c0.5,0,1.1,0,1.6,0c0.5,0,1.1,0,1.7,0.1c0.3,0.6,0.5,1.2,0.7,1.9
		c0.2,0.7,0.3,1.4,0.4,2.1c0.1,0.7,0.2,1.4,0.3,2.1c0.1,0.7,0.2,1.3,0.2,1.9c0.1,0.1,0.1,0.1,0.1,0c0,0,0-0.1,0.1-0.1
		c0,0.1,0,0.1,0.1,0.2c0,0,0.1,0.1,0.1,0.1c0.6-0.1,1.1-0.1,1.7-0.1c0.6,0,1.1,0,1.7,0c0.6,0,1.2,0,1.8,0c0.6,0,1.3-0.1,2-0.2
		c0-0.1,0-0.2,0-0.2C138.9,296.4,138.9,296.3,138.9,296.2z M126.6,282.6c-0.7,0.1-1.4,0.2-2.1,0.2c0-0.4,0.1-0.8,0.2-1.1
		c0.1-0.3,0.1-0.6-0.1-1c0.1,0,0.2,0,0.3-0.1c0.2-1,0.4-2,0.6-2.8c0.3-0.8,0.4-1.7,0.4-2.6c0-0.1,0.1-0.2,0.1-0.3c0-0.1,0-0.2,0-0.2
		c0-0.1,0-0.2,0.1-0.2c0.1,0,0.1-0.1,0.1-0.2c0.1-0.1,0-0.2,0-0.2c-0.1,0-0.1-0.1-0.1-0.1c0.1,0,0.2,0,0.2-0.2
		c0.5,1.4,1,2.9,1.3,4.5c0.3,1.6,0.7,2.9,1.2,4.2C128,282.4,127.3,282.4,126.6,282.6z"/>
	<path d="M162.2,262.7c-0.9,0.1-1.7,0.2-2.7,0.2c-0.9,0-1.8,0-2.6-0.1c0,0.1-0.1,0.2-0.3,0.3c-0.1,0.1-0.3,0.1-0.5,0.1
		c-0.3,0.9-0.4,2-0.5,3c-0.1,1.1-0.2,2.2-0.2,3.4c0,1.2-0.1,2.3-0.2,3.5c-0.1,1.2-0.2,2.3-0.5,3.4c-0.5-1.2-1-2.4-1.3-3.6
		c-0.4-1.2-0.8-2.4-1.2-3.7c-0.2-0.5-0.5-1-0.7-1.6c-0.3-0.6-0.4-1.2-0.5-1.6c-0.2-0.1-0.3-0.3-0.5-0.5c-0.1-0.2-0.2-0.5,0-0.7
		c-0.1-0.2-0.3-0.3-0.4-0.5c-0.1-0.2-0.2-0.4-0.3-0.6c-0.7-0.2-1.4-0.3-2.1-0.3c-0.7,0-1.3-0.1-2-0.1c-0.7,0-1.3,0-2,0
		c-0.7,0-1.3,0-2-0.1c-0.1,0.2-0.2,0.4-0.3,0.6c-0.1,0.2-0.2,0.5-0.2,0.7c0.1,1.1,0.2,2.3,0.2,3.4c0,1.2,0,2.3,0,3.5
		c0,1.2,0,2.4,0,3.6c0,1.2,0,2.4,0.1,3.6c-0.1,0.1-0.1,0.2-0.1,0.2c0,0,0,0.1,0,0.3c0.1,1.3,0.2,2.7,0.2,4.1c0,1.4,0,2.7-0.2,3.8
		c0.1,0.9,0.1,1.8,0.1,2.7c0,0.9,0,1.8-0.2,2.6c0.1,0.4,0.1,0.7,0,1.2s-0.1,0.8-0.1,1.2c0,0.4-0.1,0.8,0,1.1c0,0.3,0.1,0.6,0.3,0.8
		c0,0,0,0,0,0c0,0,0,0,0,0.1c0.6-0.2,1.3-0.2,1.9-0.1c0.7,0.1,1.3,0.2,2,0.3c0.7,0.1,1.3,0.1,1.8,0.1c0.6,0,1-0.3,1.4-0.7
		c-0.1-1.5-0.1-3-0.1-4.6c0.1-1.6,0.1-3.1,0.1-4.6c0-0.6,0-1.3,0-2c0-0.7,0-1.4,0-2.1c0-0.7,0-1.4,0-2c0-0.6,0-1.2,0.1-1.7
		c0.5,1.5,1.1,3,1.6,4.4c0.6,1.4,1.1,2.8,1.6,4.2c0.5,1.4,1,2.8,1.4,4.1c0.4,1.4,0.8,2.8,1.1,4.2c0.1,0.1,0.2,0.1,0.3,0.2
		c0.1,0.1,0.2,0.2,0.2,0.3c0.6-0.1,1.2-0.1,1.8-0.1c0.6,0,1.2,0,1.8,0c0.6,0,1.2,0,1.8,0c0.6,0,1.2-0.1,1.7-0.2
		c0.2-2.8,0.3-5.7,0.3-8.7c-0.1-3-0.1-6,0-8.9c0,0,0,0,0,0c0,0,0,0,0,0c-0.1-2.5-0.1-5,0-7.5c0.1-2.5,0.1-5,0-7.5
		c0.2-0.1,0.3-0.3,0.1-0.6C162.5,263,162.3,262.8,162.2,262.7z"/>
	<path d="M185.4,264c0.1-0.2,0-0.4-0.1-0.5c-0.1-0.2-0.2-0.3-0.3-0.4c-1.3-0.1-2.6-0.1-4.1-0.1s-3,0-4.5,0c-1.5,0-3.1,0-4.6,0
		c-1.6,0-3.1-0.1-4.5-0.2c-0.1,0.1-0.3,0.1-0.5,0.2c-0.2,0-0.4,0-0.6,0c-0.2,0-0.4,0-0.6,0c-0.2,0-0.4,0.1-0.6,0.2
		c0.1,0.1,0.1,0.2,0,0.4c-0.1,0.1-0.1,0.2-0.2,0.3c0,0.3,0.1,0.5,0.1,0.7c0,0.2,0,0.5-0.1,0.7c0.1,0.1,0.2,0.2,0.2,0.3
		c0,0.2-0.1,0.3-0.2,0.4c0.1,0.3,0.1,0.7,0,1.2c0,0.5,0,0.9,0,1.2c0.1,0.3,0.2,0.5,0.1,0.7c-0.1,0.2,0,0.5,0.1,0.8
		c1.3,0.1,2.6,0.1,3.7,0.1c1.1,0,2.2,0,3.2,0c-0.1,2.2-0.1,4.3-0.1,6.3c0,2,0,4,0,6.1c0,2,0,4.1,0,6.1c0,2.1,0,4.2,0,6.4
		c0,0.1-0.1,0.2-0.3,0.2c0,0.1,0,0.2,0.1,0.2c0.1,0,0.1,0.1,0.1,0.1c-0.2,0.4-0.1,0.7,0.1,0.9c0.2,0.2,0.5,0.2,0.9,0.3
		c0.4,0,0.8,0,1.2,0c0.4,0,0.8,0,1,0c0-0.1,0-0.2,0-0.2c0.1,0.1,0.2,0.1,0.3,0.1c0.1,0,0.2,0,0.2,0.1c0.4-0.2,0.8-0.2,1.2-0.1
		c0.1-0.1,0.2-0.2,0.4-0.1c0.2,0,0.3,0,0.4-0.1c0.2,0.1,0.4,0.1,0.6,0c0.2-0.1,0.4-0.2,0.5-0.3c0.2-0.2,0.3-0.3,0.3-0.6
		c0.1-0.2,0-0.5,0-0.7c0-0.6,0-1.4,0.1-2.3c0.1-0.9,0-1.7-0.2-2.3c0.1-0.2,0.1-0.4,0.1-0.5c0-0.1,0-0.3-0.1-0.5
		c0.1-0.4,0.1-0.8,0-1.2c0-0.4-0.1-0.9-0.1-1.2c0-0.8,0.1-1.7,0.1-2.6c0.1-0.9,0.1-1.9,0.1-2.8c0-0.9,0.1-1.8,0-2.7
		c0-0.9-0.1-1.7-0.1-2.4c0.1-1,0.1-2,0.1-3c0-1,0-2,0-3c1.1-0.1,2.1,0,3.1,0.1c1,0.1,2,0.1,3-0.1c0.2-0.4,0.2-0.7,0.2-1.1
		c0-0.4,0-0.8,0-1.1c0-0.4,0-0.7-0.1-1.1c0-0.4,0-0.7,0.2-1.1c-0.1-0.1-0.1-0.3-0.1-0.4c0-0.2,0.1-0.3,0.1-0.5
		c0.1-0.2,0.1-0.3,0.1-0.4C185.7,264.2,185.6,264.1,185.4,264z"/>
	<path d="M207.9,270.7c-0.2-1.5-0.7-2.8-1.4-4.1c-0.7-1.2-1.7-2.2-2.9-2.8c-0.4-0.2-0.9-0.4-1.4-0.5c-0.5-0.1-1-0.2-1.5-0.4
		c-0.6-0.1-1.1-0.3-1.7-0.4c-0.6-0.2-1.2-0.2-1.9-0.2c-0.7,0-1.4,0.1-1.9,0.4c-0.5,0.2-1.1,0.4-1.7,0.5c-0.8,0.4-1.6,1-2.2,1.6
		c-0.6,0.6-1.3,1.3-2,1.9c-0.8,1.7-1.5,3.5-2,5.4c-0.5,2-0.9,4-1,6c-0.2,2-0.1,4.1,0.1,6.1c0.2,2,0.6,4,1.2,5.8
		c0,0.4,0.1,0.9,0.3,1.2c0.2,0.4,0.3,0.7,0.6,1.1c0.2,0.3,0.4,0.7,0.7,1c0.2,0.3,0.4,0.6,0.5,1c0.4,0,0.7,0.2,0.8,0.6
		c0.7,0.6,1.6,1.1,2.6,1.5c1,0.4,2,0.6,3,0.7c1.1,0.1,2.1,0.1,3.2-0.1c1.1-0.2,2-0.5,3-1c0.3-0.2,0.6-0.4,1-0.5
		c0.3-0.2,0.7-0.3,1-0.5c0,0-0.1,0-0.1,0c0,0-0.1,0-0.1-0.1c0.6-0.3,1.2-0.6,1.7-1.1c0.5-0.4,0.9-0.9,1.2-1.5
		c0.3-0.6,0.6-1.1,0.8-1.8c0.2-0.6,0.3-1.2,0.5-1.8c0.5-1.4,0.8-2.9,1-4.4c0.2-1.5,0.2-3.1,0.2-4.6c-0.1-1.6-0.2-3.1-0.5-4.6
		C208.5,273.5,208.2,272.1,207.9,270.7z M188.1,289h-0.1v-0.1L188.1,289L188.1,289z M195.7,264.7
		C195.7,264.8,195.6,264.8,195.7,264.7C195.6,264.6,195.7,264.6,195.7,264.7z M200.7,282.4c-0.1,1-0.3,2.1-0.6,3.1
		c-0.2,1-0.7,1.9-1.3,2.6c-0.3,0.2-0.7,0.3-1.2,0.4c-0.4,0-0.9,0-1.3-0.1c-0.4-0.1-0.8-0.3-1.1-0.6c-0.3-0.3-0.6-0.6-0.7-1
		c-0.3-0.3-0.5-0.8-0.6-1.3c-0.1-0.5-0.1-1.1-0.1-1.7c0-0.6,0-1.2,0-1.7c0-0.6,0-1.1,0-1.5c0.1-0.4,0.1-0.9,0.1-1.4c0-0.5,0-1,0-1.5
		c0.1-0.4,0.2-0.9,0.3-1.4c0.1-0.5,0.2-1,0.3-1.5c0.1-0.5,0.3-1,0.5-1.5c0.2-0.5,0.5-0.9,0.8-1.3c0-0.1,0-0.1,0-0.1
		c-0.1,0-0.1-0.1,0-0.2c0.3-0.2,0.6-0.5,0.9-0.7c0.3-0.2,0.6-0.4,1-0.6c0.3-0.1,0.7-0.2,1.1-0.2c0.4,0,0.8,0.2,1.1,0.4
		c0.3,0.5,0.5,1,0.7,1.7c0.2,0.7,0.3,1.3,0.2,1.9c0.4,1.3,0.5,2.7,0.5,4.1C201,279.8,200.9,281.1,200.7,282.4z"/>
	<path d="M241,268.5c-0.2-0.2-0.2-0.4-0.1-0.7c-0.1-0.4-0.1-1-0.1-1.6c0-0.6,0-1.2,0-1.7c0-0.6-0.2-1-0.4-1.5
		c-0.2-0.4-0.7-0.7-1.4-0.7c-1.3,0.2-2.6,0.3-3.9,0.3c-1.3,0-2.6,0-3.8,0c-0.2,0.1-0.3,0.2-0.3,0.3c0,0.2-0.2,0.3-0.4,0.3
		c-0.8,2.7-1.5,5.5-2.3,8.3c-0.7,2.8-1.6,5.4-2.5,8c-0.5-1.4-1-2.7-1.6-4c-0.5-1.3-1-2.6-1.5-4c-0.5-1.3-0.9-2.7-1.4-4.1
		c-0.5-1.4-0.9-2.8-1.4-4.4c-1,0-2.2,0-3.4,0.1c-1.2,0.1-2.5,0.1-3.7,0.1c-0.2,0.2-0.4,0.4-0.5,0.6c-0.2,0.2-0.2,0.6,0,0.9
		c-0.2,2.6-0.3,5.2-0.4,7.9c-0.1,2.7-0.2,5.4-0.3,8.1c-0.1,2.7-0.1,5.4-0.2,8.1c0,2.7-0.1,5.2-0.2,7.7c0.1,0.1,0.1,0.2,0.2,0.2
		c0.1,0.1,0.2,0.2,0.3,0.2c0.5-0.2,1-0.3,1.5-0.3c0.5-0.1,1-0.1,1.4-0.1c0.5,0,1,0,1.5,0.1c0.5,0.1,1,0.1,1.6,0.1
		c0.1-0.1,0.1-0.1,0.1-0.1c0,0,0.1,0,0.2,0.1c0.1-0.1,0.1-0.2,0.2-0.3c0.1-0.1,0.2-0.1,0.3-0.1c0.1-0.8,0.2-1.6,0.2-2.5
		c0-0.9,0-1.7-0.1-2.6c-0.1-0.9-0.1-1.7-0.2-2.5c-0.1-0.8-0.1-1.5-0.1-2.2c0.1-0.5,0.1-1,0.1-1.5c0-0.5,0-1,0-1.4c0-0.5,0-1,0-1.5
		s0.1-1,0.2-1.5c0.7,1.8,1.4,3.6,2.1,5.6c0.7,1.9,1.2,3.8,1.6,5.6c0.1,0.1,0.2,0.1,0.3,0.2c0,0.1,0.1,0.2,0.1,0.4c0,0.2,0,0.3,0,0.5
		c0,0.2,0,0.3,0.1,0.4c0.4,0.2,0.8,0.2,1.4,0.1c0.6-0.1,1.1-0.2,1.6-0.3c0.7,0.3,1.2,0.4,1.6,0.2c0.4-0.2,0.7-0.5,1-0.9
		c0.3-0.4,0.4-0.9,0.6-1.5c0.1-0.6,0.2-1.1,0.4-1.6c0.1,0,0.2-0.1,0.2-0.1c0.1,0,0.1-0.1,0.2-0.1c0.1-0.7,0.2-1.3,0.4-2
		c0.2-0.6,0.4-1.3,0.7-1.9c0.2-0.6,0.5-1.2,0.7-1.8c0.2-0.6,0.4-1.2,0.4-1.8c0.2-0.2,0.3-0.5,0.4-0.7c0.1-0.3,0.2-0.6,0.2-0.8
		c0.1-0.3,0.2-0.5,0.2-0.8c0.1-0.3,0.2-0.5,0.4-0.7c0.1,0.4,0.2,0.8,0.1,1.3c-0.1,0.5-0.1,0.9,0,1.2c0,1.1,0,2.2,0.1,3.5
		c0.1,1.3,0.1,2.5,0.2,3.9c0,1.3,0.1,2.6,0.1,3.9c0,1.3,0,2.5-0.1,3.6c0.1,0.1,0.1,0.1,0.1,0.2c0,0.1,0,0.2,0.1,0.3
		c0.5,0.1,1,0.2,1.5,0.2c0.5,0,0.9-0.1,1.4-0.1c0.4,0,0.9-0.1,1.3,0c0.4,0,0.9,0.1,1.3,0.3c0.1-0.1,0.2-0.1,0.3-0.2
		c0.1-0.1,0.2-0.1,0.4-0.1c0.5-0.9,0.7-1.9,0.7-3c0-1.1,0-2.3-0.1-3.6c0.2-1.5,0.3-3,0.2-4.4c0-1.4-0.1-2.9-0.2-4.4
		c0-0.1,0.1-0.1,0.1-0.1c0.1,0,0.1,0,0.1-0.1c-0.1-0.8-0.2-1.6-0.1-2.4c0-0.8,0.1-1.6,0.1-2.4c0-0.8,0.1-1.6,0.1-2.4
		c0-0.8,0-1.6-0.1-2.5c0.3-0.3,0.4-0.7,0.3-1.2c-0.1-0.5-0.1-0.9-0.2-1.2C240.9,268.6,241,268.6,241,268.5z"/>
	<path d="M288.6,263.3c-0.4,0.1-0.9,0.2-1.4,0.2c-0.5,0-1,0-1.5,0c-0.5,0-1-0.1-1.5-0.1c-0.5,0-0.9-0.1-1.3-0.1
		c-0.3,1.2-0.6,2.4-0.9,3.7c-0.3,1.3-0.5,2.6-0.8,3.9c-0.3,1.3-0.5,2.6-0.8,3.9c-0.3,1.3-0.6,2.5-0.9,3.7c-0.2-0.3-0.3-0.6-0.3-1
		c-0.1-0.4-0.1-0.8-0.2-1.1c-0.1-0.4-0.1-0.8-0.2-1.1c-0.1-0.4-0.2-0.7-0.4-1c0.1-0.4,0-0.7-0.2-0.9c-0.2-0.8-0.4-1.5-0.7-2.3
		c-0.2-0.8-0.5-1.5-0.8-2.2c-0.3-0.7-0.7-1.4-1.1-2c-0.4-0.6-0.9-1.2-1.5-1.6c-0.8,0.4-1.3,1-1.6,1.8c-0.3,0.8-0.5,1.6-0.8,2.6h-0.2
		c-0.3,1-0.6,2-0.9,3.1c-0.3,1.1-0.7,2.1-1,3.2c-0.4-1.7-0.8-3.4-1.2-5.4c-0.4-1.9-0.8-3.9-1.2-5.8c-0.1-0.1-0.2-0.3-0.3-0.4
		c-0.1-0.1-0.2-0.3-0.3-0.5c-0.6,0.1-1.1,0.2-1.6,0.2c-0.5,0-1,0-1.4,0c-0.5,0-1-0.1-1.5-0.1c-0.5-0.1-1-0.1-1.6-0.2
		c-0.1,0.1-0.1,0.1-0.1,0.3c0,0.1-0.1,0.2-0.2,0.1c0.7,5,1.6,10.2,2.6,15.5c1.1,5.3,2.1,10.5,3.2,15.7c0.2,0.2,0.4,0.3,0.7,0.3
		c0.2,0,0.5,0,0.7,0c0.2,0,0.5-0.1,0.7-0.1c0.2,0,0.5,0,0.7,0.1c0-0.1,0-0.1,0-0.1c0.1,0.1,0.2,0.1,0.4,0.1c0.2,0,0.3,0.1,0.4,0.1
		c0.1,0,0.1,0,0-0.1c-0.1-0.1-0.1-0.1,0-0.1c0.3,0.1,0.5,0.1,0.7,0.1c0.2,0,0.4,0.1,0.6,0.2c0.4-0.6,0.6-1.3,0.7-2.1
		c0.1-0.8,0.2-1.5,0.2-2.3c0.3-1.3,0.5-2.5,0.5-3.8c0.1-0.1,0.1-0.1,0.1-0.2c0-0.1,0.1-0.1,0.1-0.2c0.1-0.8,0.2-1.7,0.4-2.6
		c0.2-0.9,0.3-1.8,0.5-2.6c0,0,0-0.1,0-0.1c0-0.1,0-0.1,0-0.1c0,0,0,0,0.1,0.1c0,0.1,0,0.1-0.1,0.1c0.3,1.1,0.6,2.2,0.8,3.4
		c0.2,1.2,0.4,2.3,0.6,3.5c0.2,1.2,0.4,2.3,0.7,3.4c0.2,1.1,0.6,2.2,1,3.1c1,0,1.9,0,2.6,0.1c0.8,0.1,1.6,0.1,2.5,0.2
		c0.4,0.1,0.9,0,1.2-0.3c0.4-0.3,0.5-0.7,0.4-1.1c0.1-0.5,0.2-1.1,0.4-1.8c0.2-0.7,0.3-1.2,0.3-1.7c0.2-0.7,0.4-1.4,0.5-2
		c0.2-0.7,0.3-1.3,0.3-1.9c0.4-1.4,0.7-2.9,0.9-4.6c0.3-1.6,0.5-3.4,0.7-5.2c0.4-1,0.6-2.1,0.8-3.2c0.2-1.1,0.3-2.2,0.4-3.2
		c0.1-1.1,0.3-2.2,0.5-3.2c0.2-1.1,0.6-2.1,1.1-3c0-0.1,0-0.1-0.1-0.1c-0.1,0-0.1,0,0-0.1c0.1,0.1,0.2,0,0.3-0.2
		c-0.1-0.2-0.2-0.4-0.2-0.7C289.2,263.3,288.9,263.3,288.6,263.3z M279.6,278.7c-0.1,0.1-0.1,0-0.1-0.1
		C279.6,278.6,279.7,278.7,279.6,278.7z"/>
	<path d="M307.5,265.4c0-0.3-0.1-0.5-0.3-0.7c-0.2-0.2-0.4-0.3-0.8-0.3c-0.1,0.1-0.4,0.2-0.7,0.2c-0.4,0-0.7,0-1-0.1
		c-1.3,0-2.6,0-3.8,0.1c-1.2,0.1-2.3,0.1-3.4,0c-0.4,0.1-1,0.2-1.7,0.1c-0.7-0.1-1.4-0.1-2,0c-0.6,0-1.2,0.1-1.6,0.4
		c-0.4,0.2-0.7,0.6-0.7,1.2c0,0-0.1-0.1-0.1-0.1c0,0-0.1,0-0.1,0c0.1,0.3,0.2,0.6,0.2,1c0,0.4-0.1,0.7-0.2,1.1
		c0.2,0.3,0.2,0.7,0.2,1c0,0.4-0.1,0.7-0.1,1c0.1,1.6,0.1,3.1,0.1,4.6c-0.1,1.5-0.2,3-0.3,4.5c-0.1,1.5-0.3,3-0.4,4.5
		c-0.1,1.5-0.3,3-0.3,4.6c0.1,0.6,0.1,1.2,0,1.8c-0.1,0.6-0.1,1.2,0,1.8c-0.2,0.1-0.3,0.1-0.3,0.2c0.1,0,0.1,0,0.2,0.1
		c0.1,0,0.1,0.1,0.1,0.1c-0.1,0.2-0.1,0.4-0.1,0.7c0,0.2,0,0.4-0.2,0.6c0.1,0.1,0.2,0.2,0.1,0.3c0,0.1,0,0.3,0,0.4
		c-0.1,0-0.2,0-0.2,0.1c0.1,0.2,0.2,0.5,0.2,0.8s0.1,0.5,0.4,0.7c0.9-0.2,1.8-0.3,2.7-0.4c0.9,0,1.8-0.1,2.7-0.1v0.2
		c1.2-0.1,2.3-0.2,3.2-0.2c0.9,0,1.9,0.1,2.9,0.4c0.2-0.1,0.4-0.1,0.6-0.1c0.2,0,0.4,0,0.6,0.2c0.4,0.1,1,0.1,1.5,0.1
		c0.6,0,1.1,0.1,1.7,0.1c0.1-0.1,0.2-0.4,0.3-0.7c0.1,0,0.1,0,0.1,0c0,0.1,0.1,0.1,0.1,0c0.1-0.3,0.2-0.7,0.3-1.2
		c0.1-0.4,0-0.8-0.1-1.2c-0.1-0.3-0.1-0.7,0-1.1c0.1-0.4,0.1-0.8,0.1-1.3c0-0.4,0-0.8-0.1-1.2c-0.1-0.4-0.3-0.6-0.7-0.8
		c-0.6,0.1-1.2,0.1-1.9,0.2c-0.7,0.1-1.4,0.1-2.1,0.2c-0.7,0-1.4,0.1-2.1,0c-0.7,0-1.3-0.1-2-0.1c-0.1,0.1-0.2,0.2-0.5,0.2
		c-0.2,0-0.4-0.1-0.4-0.2c0.1-0.6,0.1-1.1,0.1-1.7c0-0.5,0-1-0.1-1.5c0-0.5,0-1,0-1.5c0-0.5,0.1-1,0.2-1.4c0.6,0.1,1,0,1.4-0.1
		c0.3,0.1,0.5,0.1,0.8,0.1c0.3,0,0.6,0,0.8,0c0.3,0,0.6,0,0.8,0c0.3,0,0.5,0.1,0.8,0.2c0.1-0.1,0.3-0.1,0.5-0.1c0.2,0,0.4,0,0.5,0.1
		c0.6,0,1.1-0.1,1.3-0.3c0.2-0.2,0.4-0.6,0.5-1c0.1-0.4,0.1-0.8,0-1.3c0-0.5,0-0.9,0-1.3c-0.1-0.5-0.1-0.9-0.1-1.4
		c0-0.4,0.1-0.9,0.1-1.3c-0.1-0.1-0.2-0.1-0.3-0.2c-0.1-0.1-0.2-0.2-0.3-0.3c-1,0-2.1,0-3.3,0c-1.2,0-2.4,0-3.4,0
		c0.1-0.1,0.1-0.1,0.2,0c-0.1-0.2,0-0.3,0-0.5c0.1-0.1,0.1-0.3-0.1-0.4c0.1-0.4,0.2-0.9,0.3-1.4c0.1-0.5,0.1-1.1,0.2-1.7
		c0,0,0.1,0,0.2,0c-0.1-0.2,0-0.3,0-0.5c0.1-0.1,0.1-0.3,0.1-0.5c1.4-0.1,2.7-0.1,4.1-0.3c1.4-0.1,2.7-0.1,3.9-0.1
		c0.1-0.4,0.3-0.8,0.6-0.9c0.1-0.6,0.1-1.1,0.1-1.6c0-0.4,0-0.9-0.2-1.4c0.1-0.2,0.1-0.5,0.1-0.8
		C307.5,265.9,307.5,265.7,307.5,265.4z"/>
	<path d="M324.1,288.2c-0.7,0.1-1.5,0.1-2.3,0.2c-0.8,0.1-1.5,0.1-2.3,0.1c-0.7,0-1.4,0-1.9-0.1c-0.1-0.1-0.2-0.2-0.3-0.3
		c0-1.6,0.1-3.2,0.3-4.9c0.2-1.7,0.2-3.3,0.1-4.9c0.1-1.2,0.1-2.4,0.2-3.7c0-1.3,0.1-2.6,0.1-3.9c0-1.3,0-2.6,0-3.8
		c0-1.3,0-2.4,0.1-3.5c-0.1-0.1-0.2-0.1-0.3-0.2c-0.1-0.1-0.2-0.1-0.3-0.1c-0.5,0.2-1.1,0.3-1.9,0.3c-0.7,0-1.4,0-2.1-0.1
		c-0.7,0-1.4,0-2,0.1c-0.6,0.1-1.1,0.4-1.5,0.8c0.1,0.6,0.2,1.3,0.2,2c0.1,0.7,0.1,1.5,0.2,2.2c0,0.8,0,1.5,0,2.2
		c0,0.7-0.1,1.4-0.2,2.1c0,0.1,0,0.1,0.1,0.2c0.1,0,0.1,0.1,0.1,0.2c-0.2,1.9-0.4,3.7-0.4,5.5c-0.1,1.8-0.1,3.5-0.1,5.2
		c0,1.7,0,3.4,0,5c0,1.7,0,3.3-0.1,5.1c0.1,0.4,0.2,0.7,0.2,1c0,0.3,0.1,0.6,0.4,0.8c2.5-0.1,5.1-0.1,7.7,0c2.6,0.1,5.2,0.2,7.9,0.2
		c0.2-0.6,0.3-1.2,0.3-1.7c0-0.6,0.1-1.1,0.1-1.7c0-0.6,0-1.2,0-1.8c0-0.6,0.1-1.2,0.2-1.9c-0.2-0.2-0.4-0.4-0.4-0.7
		C325.5,288.1,324.8,288.1,324.1,288.2z"/>
	<path d="M342.6,288.2c-0.7,0.1-1.5,0.1-2.3,0.2c-0.8,0.1-1.5,0.1-2.3,0.1c-0.7,0-1.4,0-1.9-0.1c-0.1-0.1-0.2-0.2-0.3-0.3
		c0-1.6,0.1-3.2,0.3-4.9c0.2-1.7,0.2-3.3,0.1-4.9c0.1-1.2,0.1-2.4,0.2-3.7c0-1.3,0.1-2.6,0.1-3.9c0-1.3,0-2.6,0-3.8
		c0-1.3,0-2.4,0.1-3.5c-0.1-0.1-0.2-0.1-0.3-0.2c-0.1-0.1-0.2-0.1-0.3-0.1c-0.5,0.2-1.1,0.3-1.9,0.3c-0.7,0-1.4,0-2.1-0.1
		c-0.7,0-1.4,0-2,0.1c-0.6,0.1-1.1,0.4-1.5,0.8c0.1,0.6,0.2,1.3,0.2,2c0.1,0.7,0.1,1.5,0.2,2.2c0,0.8,0,1.5,0,2.2
		c0,0.7-0.1,1.4-0.2,2.1c0,0.1,0,0.1,0.1,0.2c0.1,0,0.1,0.1,0.1,0.2c-0.2,1.9-0.4,3.7-0.4,5.5c-0.1,1.8-0.1,3.5-0.1,5.2
		c0,1.7,0,3.4,0,5c0,1.7,0,3.3-0.1,5.1c0.1,0.4,0.2,0.7,0.2,1c0,0.3,0.1,0.6,0.4,0.8c2.5-0.1,5.1-0.1,7.7,0c2.6,0.1,5.2,0.2,7.9,0.2
		c0.2-0.6,0.3-1.2,0.3-1.7c0-0.6,0.1-1.1,0.1-1.7c0-0.6,0-1.2,0-1.8c0-0.6,0.1-1.2,0.2-1.9c-0.2-0.2-0.4-0.4-0.4-0.7
		C344,288.1,343.3,288.1,342.6,288.2z"/>
	<path d="M367.1,263.3c-0.8,0.1-1.7,0.2-2.5,0.2c-0.9,0-1.7,0-2.4-0.1c0,0.1-0.1,0.2-0.2,0.3c-0.1,0.1-0.3,0.1-0.4,0.1
		c-0.2,0.9-0.4,1.9-0.5,2.9c-0.1,1-0.2,2.1-0.2,3.2c0,1.1-0.1,2.2-0.2,3.3c-0.1,1.1-0.2,2.2-0.4,3.2c-0.5-1.1-0.9-2.2-1.3-3.4
		c-0.3-1.1-0.7-2.3-1.1-3.5c-0.2-0.4-0.4-1-0.7-1.5c-0.3-0.6-0.4-1.1-0.5-1.5c-0.2-0.1-0.3-0.3-0.4-0.5c-0.1-0.2-0.1-0.4,0-0.6
		c-0.1-0.2-0.3-0.3-0.4-0.5c-0.1-0.2-0.2-0.3-0.3-0.6c-0.7-0.2-1.3-0.3-2-0.3c-0.6,0-1.3-0.1-1.9-0.1c-0.6,0-1.2,0-1.9,0
		c-0.6,0-1.3,0-1.9-0.1c-0.1,0.2-0.2,0.4-0.3,0.6c-0.1,0.2-0.2,0.5-0.2,0.7c0.1,1.1,0.2,2.2,0.2,3.3c0,1.1,0,2.2,0,3.3
		c0,1.1,0,2.3,0,3.4c0,1.1,0,2.3,0.1,3.4c-0.1,0.1-0.1,0.2-0.1,0.2c0,0,0,0.1,0,0.3c0.1,1.3,0.2,2.6,0.2,3.9c0,1.3,0,2.5-0.2,3.6
		c0.1,0.8,0.1,1.7,0.1,2.6c0,0.9,0,1.7-0.2,2.4c0.1,0.3,0.1,0.7,0,1.1c0,0.4-0.1,0.8-0.1,1.1c0,0.4-0.1,0.7,0,1
		c0,0.3,0.1,0.6,0.3,0.8c0,0,0,0,0,0c0,0,0,0,0,0.1c0.6-0.2,1.2-0.2,1.8-0.1c0.6,0.1,1.3,0.2,1.9,0.3c0.6,0.1,1.2,0.1,1.7,0.1
		c0.5,0,1-0.3,1.3-0.7c-0.1-1.4-0.1-2.9-0.1-4.3c0.1-1.5,0.1-2.9,0.1-4.3c0-0.6,0-1.2,0-1.9c0-0.7,0-1.3,0-2s0-1.3,0-1.9
		c0-0.6,0-1.1,0.1-1.6c0.5,1.4,1,2.8,1.5,4.1c0.5,1.3,1,2.6,1.5,4c0.5,1.3,1,2.6,1.4,3.9c0.4,1.3,0.7,2.7,1,4
		c0.1,0.1,0.2,0.1,0.3,0.2c0.1,0.1,0.2,0.1,0.2,0.3c0.6-0.1,1.1-0.1,1.7-0.1c0.6,0,1.2,0,1.7,0c0.6,0,1.1,0,1.7,0
		c0.6,0,1.1-0.1,1.6-0.2c0.2-2.7,0.3-5.4,0.2-8.3s-0.1-5.7,0-8.5c0,0,0,0,0,0c0,0,0,0,0,0c-0.1-2.4-0.1-4.8,0-7.1
		c0.1-2.3,0.1-4.7,0-7.1c0.2-0.1,0.3-0.3,0.1-0.6S367.2,263.4,367.1,263.3z"/>
	<path d="M386.9,265.4c0-0.3-0.1-0.5-0.3-0.7c-0.2-0.2-0.4-0.3-0.8-0.3c-0.1,0.1-0.4,0.2-0.7,0.2c-0.4,0-0.7,0-1-0.1
		c-1.3,0-2.6,0-3.8,0.1c-1.2,0.1-2.3,0.1-3.4,0c-0.4,0.1-1,0.2-1.7,0.1c-0.7-0.1-1.4-0.1-2,0c-0.6,0-1.2,0.1-1.6,0.4
		c-0.4,0.2-0.7,0.6-0.7,1.2c0,0-0.1-0.1-0.1-0.1c0,0-0.1,0-0.1,0c0.1,0.3,0.2,0.6,0.2,1c0,0.4-0.1,0.7-0.2,1.1
		c0.2,0.3,0.2,0.7,0.2,1c0,0.4-0.1,0.7-0.1,1c0.1,1.6,0.1,3.1,0.1,4.6c-0.1,1.5-0.2,3-0.3,4.5c-0.1,1.5-0.3,3-0.4,4.5
		c-0.1,1.5-0.3,3-0.3,4.6c0.1,0.6,0.1,1.2,0,1.8c-0.1,0.6-0.1,1.2,0,1.8c-0.2,0.1-0.3,0.1-0.3,0.2c0.1,0,0.1,0,0.2,0.1
		c0.1,0,0.1,0.1,0.1,0.1c-0.1,0.2-0.1,0.4-0.1,0.7c0,0.2,0,0.4-0.2,0.6c0.1,0.1,0.2,0.2,0.1,0.3c0,0.1,0,0.3,0,0.4
		c-0.1,0-0.2,0-0.2,0.1c0.1,0.2,0.2,0.5,0.2,0.8s0.1,0.5,0.4,0.7c0.9-0.2,1.8-0.3,2.7-0.4c0.9,0,1.8-0.1,2.7-0.1v0.2
		c1.2-0.1,2.3-0.2,3.2-0.2c0.9,0,1.9,0.1,2.9,0.4c0.2-0.1,0.4-0.1,0.6-0.1c0.2,0,0.4,0,0.6,0.2c0.4,0.1,1,0.1,1.5,0.1
		c0.6,0,1.1,0.1,1.7,0.1c0.1-0.1,0.2-0.4,0.3-0.7c0.1,0,0.1,0,0.1,0c0,0.1,0.1,0.1,0.1,0c0.1-0.3,0.2-0.7,0.3-1.2
		c0.1-0.4,0-0.8-0.1-1.2c-0.1-0.3-0.1-0.7,0-1.1c0.1-0.4,0.1-0.8,0.1-1.3c0-0.4,0-0.8-0.1-1.2c-0.1-0.4-0.3-0.6-0.7-0.8
		c-0.6,0.1-1.2,0.1-1.9,0.2c-0.7,0.1-1.4,0.1-2.1,0.2c-0.7,0-1.4,0.1-2.1,0c-0.7,0-1.3-0.1-2-0.1c-0.1,0.1-0.2,0.2-0.5,0.2
		c-0.2,0-0.4-0.1-0.4-0.2c0.1-0.6,0.1-1.1,0.1-1.7c0-0.5,0-1-0.1-1.5c0-0.5,0-1,0-1.5c0-0.5,0.1-1,0.2-1.4c0.6,0.1,1,0,1.4-0.1
		c0.3,0.1,0.5,0.1,0.8,0.1c0.3,0,0.6,0,0.8,0c0.3,0,0.6,0,0.8,0c0.3,0,0.5,0.1,0.8,0.2c0.1-0.1,0.3-0.1,0.5-0.1c0.2,0,0.4,0,0.5,0.1
		c0.6,0,1.1-0.1,1.3-0.3c0.2-0.2,0.4-0.6,0.5-1c0.1-0.4,0.1-0.8,0-1.3c0-0.5,0-0.9,0-1.3c-0.1-0.5-0.1-0.9-0.1-1.4
		c0-0.4,0.1-0.9,0.1-1.3c-0.1-0.1-0.2-0.1-0.3-0.2c-0.1-0.1-0.2-0.2-0.3-0.3c-1,0-2.1,0-3.3,0s-2.4,0-3.4,0c0.1-0.1,0.1-0.1,0.2,0
		c-0.1-0.2,0-0.3,0-0.5c0.1-0.1,0.1-0.3-0.1-0.4c0.1-0.4,0.2-0.9,0.3-1.4c0.1-0.5,0.1-1.1,0.2-1.7c0,0,0.1,0,0.2,0
		c-0.1-0.2,0-0.3,0-0.5c0.1-0.1,0.1-0.3,0.1-0.5c1.4-0.1,2.7-0.1,4.1-0.3c1.4-0.1,2.7-0.1,3.9-0.1c0.1-0.4,0.3-0.8,0.6-0.9
		c0.1-0.6,0.1-1.1,0.1-1.6c0-0.4,0-0.9-0.2-1.4c0.1-0.2,0.1-0.5,0.1-0.8C387,265.9,387,265.7,386.9,265.4z"/>
	<path d="M407.4,280.4c-0.5-0.9-1.1-1.6-1.7-2.2c-0.2-0.1-0.4-0.2-0.6-0.4c-0.2-0.2-0.3-0.4-0.4-0.5c-0.6-0.4-1.1-0.9-1.6-1.3
		c-0.5-0.4-1.1-0.8-1.9-1c-0.2-0.2-0.6-0.4-1.1-0.8c-0.5-0.3-0.9-0.7-1.3-1c-0.4-0.4-0.7-0.8-0.8-1.1c-0.1-0.4,0-0.8,0.4-1.1
		c0-0.1,0-0.2-0.1-0.1c-0.1,0-0.1,0-0.1-0.1c0.4-0.2,0.7-0.4,1.1-0.6c0.4-0.2,0.7-0.3,1.1-0.4c0.9,0.1,1.7,0.4,2.4,0.9
		c0.6,0.4,1.2,1,1.6,1.7c0.2,0.1,0.3,0.1,0.4,0.2c0.1,0.1,0.2,0.1,0.4,0c0.6-0.8,1.1-1.7,1.5-2.6c0.4-0.9,0.8-1.7,1.3-2.5
		c-0.1-0.1-0.1-0.3-0.1-0.4c0-0.1,0-0.3,0-0.4c0-0.1-0.1-0.1-0.1-0.1c-0.1,0-0.1-0.1-0.1-0.1c0.1,0,0.1-0.1,0.1-0.2
		c-0.1-0.1-0.3,0-0.4,0c-0.1,0.1-0.2,0-0.2-0.2c-0.8-0.4-1.7-0.8-2.7-1.2c-0.9-0.4-1.9-0.7-2.9-0.9c-1-0.2-2-0.3-3-0.3
		c-1,0-2,0.2-2.9,0.6c-0.9,0.1-1.7,0.5-2.3,1c-0.6,0.5-1.2,1.1-1.9,1.6c-0.2,0.4-0.5,0.9-0.8,1.3c-0.3,0.5-0.5,0.9-0.7,1.4
		c-0.2,0.5-0.3,1-0.4,1.5c-0.1,0.5,0,1.1,0.1,1.6c0,0.1-0.1,0.1-0.1,0.1c0,0-0.1,0.1-0.1,0.1c0.1,0.2,0.2,0.4,0.3,0.6
		c0,0.2,0,0.4-0.1,0.6c0.1,0,0.2,0,0.3,0.2c0,0.4,0.2,0.8,0.4,1.2c0.2,0.4,0.4,0.9,0.6,1.4c1,1,2.2,1.9,3.4,2.7
		c1.2,0.8,2.6,1.4,4.1,1.8c0.3,0.2,0.6,0.4,0.9,0.7c0.3,0.3,0.7,0.5,1,0.8c0.3,0.3,0.6,0.6,0.8,0.9c0.2,0.3,0.4,0.7,0.4,1.1
		c0.1,0.8-0.1,1.5-0.4,2c-0.3,0.6-0.8,1-1.4,1.3c-0.6,0.3-1.2,0.5-1.9,0.5c-0.7,0-1.3-0.2-1.9-0.5c-0.4-0.4-0.9-0.8-1.3-1.3
		c-0.4-0.4-0.8-0.9-1.1-1.5c-0.2-0.1-0.3-0.2-0.5-0.2c-0.2,0-0.4,0.1-0.5,0.1c-0.2,0.5-0.5,1-0.9,1.3c-0.4,0.4-0.8,0.7-1.1,1
		c-0.4,0.3-0.8,0.7-1.1,1c-0.4,0.4-0.6,0.8-0.8,1.3c0.1,0,0.2,0,0.2,0c-0.1,0.1-0.1,0.2,0,0.4c0,0.1,0,0.3,0,0.4c0.1,0,0.1,0,0.2,0
		c0.1,0,0.1,0,0.1,0.1c0,0.1,0,0.3,0,0.4c0.3,0.4,0.6,0.9,0.8,1.3c0.3,0.4,0.6,0.8,0.9,1.2c0.8,0.5,1.7,0.9,2.6,1.2
		c0.9,0.3,1.9,0.5,2.9,0.6c1,0.1,2,0.2,3.1,0.1c1-0.1,2-0.2,3-0.4c0.3-0.2,0.7-0.3,1.1-0.5c0.4-0.2,0.8-0.3,1.1-0.5
		c0.4-0.2,0.7-0.4,1-0.6c0.3-0.2,0.6-0.5,0.8-0.8c0.3-0.6,0.6-1.2,1-1.7c0.4-0.5,0.7-1.1,0.9-1.7c0.2-1.1,0.3-2.3,0.3-3.4
		c0-1.1-0.2-2.2-0.4-3.2C408.2,282.3,407.9,281.3,407.4,280.4z"/>
	<path d="M430.2,283.3c-0.3-1-0.6-2-1.1-2.8c-0.5-0.9-1.1-1.6-1.7-2.2c-0.2-0.1-0.4-0.2-0.6-0.4c-0.2-0.2-0.3-0.4-0.4-0.5
		c-0.6-0.4-1.1-0.9-1.6-1.3c-0.5-0.4-1.1-0.8-1.9-1c-0.2-0.2-0.6-0.4-1.1-0.8c-0.5-0.3-0.9-0.7-1.3-1c-0.4-0.4-0.7-0.8-0.8-1.1
		c-0.1-0.4,0-0.8,0.4-1.1c0-0.1,0-0.2-0.1-0.1c-0.1,0-0.1,0-0.1-0.1c0.4-0.2,0.7-0.4,1.1-0.6c0.4-0.2,0.7-0.3,1.1-0.4
		c0.9,0.1,1.7,0.4,2.4,0.9c0.6,0.4,1.2,1,1.6,1.7c0.2,0.1,0.3,0.1,0.4,0.2c0.1,0.1,0.2,0.1,0.4,0c0.6-0.8,1.1-1.7,1.5-2.6
		c0.4-0.9,0.8-1.7,1.3-2.5c-0.1-0.1-0.1-0.3-0.1-0.4c0-0.1,0-0.3,0-0.4c0-0.1-0.1-0.1-0.1-0.1c-0.1,0-0.1-0.1-0.1-0.1
		c0.1,0,0.1-0.1,0.1-0.2c-0.1-0.1-0.3,0-0.4,0c-0.1,0.1-0.2,0-0.2-0.2c-0.8-0.4-1.7-0.8-2.7-1.2c-0.9-0.4-1.9-0.7-2.9-0.9
		c-1-0.2-2-0.3-3-0.3c-1,0-2,0.2-2.9,0.6c-0.9,0.1-1.7,0.5-2.3,1c-0.6,0.5-1.2,1.1-1.9,1.6c-0.2,0.4-0.5,0.9-0.8,1.3
		c-0.3,0.5-0.5,0.9-0.7,1.4c-0.2,0.5-0.3,1-0.4,1.5c-0.1,0.5,0,1.1,0.1,1.6c0,0.1-0.1,0.1-0.1,0.1c0,0-0.1,0.1-0.1,0.1
		c0.1,0.2,0.2,0.4,0.3,0.6c0,0.2,0,0.4-0.1,0.6c0.1,0,0.2,0,0.3,0.2c0,0.4,0.2,0.8,0.4,1.2c0.2,0.4,0.4,0.9,0.6,1.4
		c1,1,2.2,1.9,3.4,2.7c1.2,0.8,2.6,1.4,4.1,1.8c0.3,0.2,0.6,0.4,0.9,0.7c0.3,0.3,0.7,0.5,1,0.8c0.3,0.3,0.6,0.6,0.8,0.9
		c0.2,0.3,0.4,0.7,0.4,1.1c0.1,0.8-0.1,1.5-0.4,2c-0.3,0.6-0.8,1-1.4,1.3c-0.6,0.3-1.2,0.5-1.9,0.5c-0.7,0-1.3-0.2-1.9-0.5
		c-0.4-0.4-0.9-0.8-1.3-1.3s-0.8-0.9-1.1-1.5c-0.2-0.1-0.3-0.2-0.5-0.2c-0.2,0-0.4,0.1-0.5,0.1c-0.2,0.5-0.5,1-0.9,1.3
		c-0.4,0.4-0.8,0.7-1.1,1c-0.4,0.3-0.8,0.7-1.1,1c-0.4,0.4-0.6,0.8-0.8,1.3c0.1,0,0.2,0,0.2,0c-0.1,0.1-0.1,0.2,0,0.4
		c0,0.1,0,0.3,0,0.4c0.1,0,0.1,0,0.2,0c0.1,0,0.1,0,0.1,0.1c0,0.1,0,0.3,0,0.4c0.3,0.4,0.6,0.9,0.8,1.3c0.3,0.4,0.6,0.8,0.9,1.2
		c0.8,0.5,1.7,0.9,2.6,1.2c0.9,0.3,1.9,0.5,2.9,0.6c1,0.1,2,0.2,3.1,0.1c1-0.1,2-0.2,3-0.4c0.3-0.2,0.7-0.3,1.1-0.5
		c0.4-0.2,0.8-0.3,1.1-0.5c0.4-0.2,0.7-0.4,1-0.6c0.3-0.2,0.6-0.5,0.8-0.8c0.3-0.6,0.6-1.2,1-1.7c0.4-0.5,0.7-1.1,0.9-1.7
		c0.2-1.1,0.3-2.3,0.3-3.4C430.6,285.4,430.4,284.3,430.2,283.3z"/>
	<path d="M257.7,264.5c-0.1-0.1-0.2-0.2-0.3-0.2c1.2-1.2,2.3-2.3,3.6-3.5c3.3-3.1,6.6-6.1,9.8-9.2c0.5-0.4,0.9-0.9,1.4-1.3
		c0.6,0,1.2,0,1.8,0c6.4,0,12.7,0.2,19,0.5c0.6-0.2,1.4-0.2,2.2-0.2c0.9,0,1.6,0,2.2-0.2c0.3-0.1,0.5-0.3,0.6-0.6
		c0.1-0.3,0.2-0.5,0.2-0.8c0-0.2,0-0.5,0-0.7c0.1,0,0.2,0,0.3,0c0.3,0,0.6-0.1,0.8-0.2c0.3-0.1,0.5-0.3,0.6-0.7
		c0.3-1.7,0.4-3.3,0.3-5c0-1.7-0.1-3.3-0.2-5c-0.1-1.7-0.2-3.3-0.2-5c-0.1-1.6,0-3.2,0.2-4.8c-0.1-0.3-0.2-0.6-0.2-0.9
		c0-0.3,0-0.7,0.1-1c0-0.3,0-0.7,0-1c0-0.3-0.1-0.6-0.2-0.9c0.1-2.8,0.2-5.7,0.2-8.7c0-1.1,0-2.3,0.1-3.4c0.3-0.1,0.5-0.3,0.6-0.5
		c0.1-0.2,0.2-0.5,0.2-0.8c0-0.3,0-0.6-0.1-0.9c0-0.3-0.1-0.5-0.1-0.7c0-0.4-0.1-0.8-0.3-1.2c0-0.1,0-0.1-0.1-0.2
		c0-0.4,0.1-0.8,0.1-1.2c-0.2-0.3-0.2-0.6-0.2-1c0-0.4,0-0.7-0.2-1c0.1-0.1,0.1-0.2,0.2-0.2c-0.2-0.1-0.3-0.1-0.5-0.2
		c-0.2,0-0.3-0.1-0.4-0.2c-8.3,0.3-16.8,0.4-25.4,0.2c-8.7-0.2-17.4-0.3-26-0.5c-6.2-0.1-12.6-0.2-19.1-0.2
		c-5.9,0-11.4-0.1-16.5-0.2c-0.1-0.1-0.2-0.2-0.4-0.2c-0.3-0.1-0.5-0.1-0.8-0.1c-0.3,0-0.6,0-0.9,0c-0.3,0-0.5,0-0.7,0
		c-0.4,0-0.8,0-1.2,0.1c-0.4,0.1-0.9,0.2-1.3,0.2c-0.4,0.1-0.8,0.1-1.3,0.1c-0.4,0-0.8-0.1-1.2-0.2c-0.1,0.1-0.1,0.2-0.2,0.3
		c0,0.1-0.1,0.2-0.2,0.2c0.3,4.1,0.4,8.4,0.2,12.7c-0.2,4.3-0.3,8.7-0.5,13c-0.1,3.1-0.2,6.3-0.2,9.5c0,1.4,0,2.7,0,3.9
		c-0.1,0.4-0.1,0.8-0.1,1.3c0,0.1,0,0.2,0,0.3c0,0.8,0,1.5-0.1,2.3c-0.1,0.1-0.1,0.2-0.2,0.3c0.1,0.1,0.1,0.2,0.2,0.3
		c0,0.2,0,0.5,0,0.7c0,0,0,0,0,0.1c-0.1,0.3-0.1,0.6-0.1,0.8c0,0.3,0.1,0.6,0.4,0.9c0.2,0.3,0.7,0.5,1.5,0.6
		c3.5,0.3,7.1,0.4,10.6,0.4c3.6,0,7.1-0.1,10.7-0.2c1.8,0,3.6-0.1,5.3-0.1c0.8,0.9,1.7,1.7,2.4,2.7c0.3,0.1,0.5,0.3,0.8,0.6
		c0.2,0.3,0.5,0.5,0.7,0.8c0.2,0.3,0.5,0.5,0.7,0.7c0.2,0.2,0.5,0.4,0.8,0.5c2,2.2,4.2,4.5,6.4,6.8c0.7,0.7,1.3,1.4,2,2.1
		c0,0.1-0.1,0.1-0.1,0.2c0,0.2,0,0.4,0.2,0.6c0.1,0.2,0.3,0.4,0.5,0.7c0.2,0.2,0.4,0.4,0.7,0.6c0.2,0.2,0.4,0.4,0.5,0.5
		c0.3,0.3,0.6,0.5,1,0.8c0.2,0.1,0.3,0.2,0.5,0.3c0.4,0.4,0.8,0.9,1.1,1.3c0.3,0.1,0.7,0.3,0.9,0.6c0,0,0,0,0.1,0.1
		c0,0.1,0.1,0.2,0.1,0.3c0,0,0.1,0,0.1,0c0.2,0.2,0.4,0.3,0.6,0.3c0.2,0,0.4,0,0.6-0.2c0.2-0.1,0.4-0.3,0.7-0.5
		c0.2-0.2,0.4-0.4,0.6-0.7c0.2-0.2,0.4-0.4,0.5-0.5c0.3-0.3,0.5-0.6,0.8-1c0.2-0.4,0.5-0.7,0.7-1.1c0.3-0.3,0.5-0.7,0.8-0.9
		c0.3-0.3,0.6-0.5,1-0.7c0-0.1,0-0.2-0.1-0.3C257.6,264.7,257.6,264.6,257.7,264.5z M254,256.3c-0.8,0.8-1.7,1.6-2.5,2.4
		c-1.1-1.1-2.2-2.2-3.3-3.4c-1.6-1.7-3.2-3.4-4.7-5.1c-1.5-1.6-3-3.2-4.4-4.8c-1.2-1.3-2.4-2.6-3.6-3.8c-3.8,0-7.7-0.1-11.6-0.1
		c-0.4,0-0.8,0-1.2,0c-3.5,0-6.8,0-10-0.1c0-1.3-0.1-2.7-0.1-4c-0.1-1.7-0.2-3.4-0.2-5.1c-0.1-1.7,0-3.3,0.2-5
		c-0.1-0.3-0.2-0.6-0.2-0.9c0-0.3,0-0.7,0.1-1c0-0.3,0-0.7,0-1c0-0.3-0.1-0.6-0.2-0.9c0.1-2.9,0.2-5.9,0.2-9c0-0.9,0-1.9,0-2.8
		c2.9,0.2,5.8,0.3,8.7,0.3c3.5,0,6.9-0.1,10.4-0.2c3.5-0.1,6.9-0.2,10.2-0.2c3.4-0.1,6.7,0,10,0.2c0.5-0.1,1.1-0.2,1.8-0.2
		c0.7,0,1.4,0,2,0.1c0.7,0,1.3,0,2,0c0.6,0,1.2-0.1,1.8-0.2c5.8,0.1,11.9,0.2,18,0.2c5,0,10,0.1,15,0.3c0,1.6,0,3.2-0.1,4.8
		c-0.2,4.2-0.3,8.4-0.5,12.6c-0.1,3-0.2,6.1-0.2,9.2c0,1.2,0,2.4,0,3.5c-3.6,0.1-7.3,0.1-11.1,0.2c-3.3,0-6.6,0-10-0.1
		c-0.8,0-1.5,0-2.3,0c-0.4,0.4-0.7,0.8-1.1,1.1c-1.2,1.3-2.4,2.4-3.8,3.5c-0.1,0.3-0.3,0.5-0.6,0.8c-0.3,0.2-0.5,0.5-0.8,0.7
		c-0.3,0.2-0.5,0.5-0.7,0.7c-0.2,0.2-0.4,0.5-0.5,0.8c-0.1,0.1-0.2,0.2-0.3,0.3C258.3,252.1,256.2,254.2,254,256.3z"/>
	<path d="M260.6,233.1c0,0.3,0.1,0.6,0.3,0.9c0.2,0.3,0.5,0.5,0.7,0.8c0.3,0.2,0.5,0.5,0.8,0.7c0.3,0.2,0.5,0.5,0.6,0.8
		c0.2,0.1,0.4,0.3,0.5,0.4c0.2,0.2,0.3,0.4,0.5,0.5c0.2,0.2,0.3,0.3,0.5,0.4c0.2,0.1,0.4,0.1,0.6,0c0.8-0.5,1.6-1.2,2.2-1.9
		c0.7-0.7,1.3-1.4,2-2.2c0.6-0.7,1.3-1.5,1.9-2.2c0.1-0.1,0.3-0.3,0.4-0.4c1,1.1,2,2.1,3,3.2c1.3,1.3,2.5,2.6,3.5,3.7
		c0.3,0,0.6-0.1,0.9-0.3c0.3-0.2,0.5-0.5,0.8-0.7c0.2-0.3,0.5-0.5,0.7-0.8c0.2-0.3,0.5-0.5,0.8-0.6c0.1-0.2,0.3-0.4,0.4-0.5
		c0.2-0.2,0.4-0.3,0.5-0.5s0.3-0.3,0.4-0.5c0.1-0.2,0.1-0.4,0-0.6c-0.5-0.8-1.2-1.6-1.9-2.2c-0.7-0.7-1.4-1.3-2.2-2
		c-0.7-0.6-1.5-1.3-2.2-1.9c-0.2-0.2-0.3-0.3-0.5-0.5c0.8-0.8,1.6-1.5,2.4-2.3c1.2-1.2,2.5-2.4,3.9-3.4c0-0.2,0.1-0.4,0.3-0.5
		c0.2-0.1,0.3-0.3,0.3-0.6c0-0.1-0.1-0.3-0.2-0.4c-0.1-0.2-0.2-0.3-0.4-0.5c-0.2-0.2-0.3-0.3-0.5-0.5s-0.3-0.3-0.4-0.4
		c-0.2-0.2-0.4-0.4-0.7-0.6c-0.3-0.2-0.5-0.4-0.7-0.6c-0.2-0.2-0.5-0.4-0.7-0.6c-0.2-0.2-0.4-0.4-0.5-0.7c-0.1,0-0.1,0-0.2,0
		c-0.1,0-0.1,0-0.2,0c-1.5,1.8-3.1,3.6-5,5.2c-0.6,0.5-1.2,1.1-1.8,1.6c-0.8-0.8-1.6-1.7-2.4-2.5c-1.2-1.2-2.4-2.5-3.4-3.9
		c-0.2,0-0.4-0.1-0.5-0.3c-0.1-0.2-0.3-0.3-0.6-0.3c-0.1,0-0.3,0.1-0.4,0.2c-0.2,0.1-0.3,0.2-0.5,0.4c-0.2,0.2-0.3,0.3-0.5,0.5
		s-0.3,0.3-0.4,0.4c-0.2,0.2-0.4,0.4-0.6,0.7c-0.2,0.3-0.4,0.5-0.6,0.7c-0.2,0.2-0.4,0.5-0.6,0.7c-0.2,0.2-0.4,0.4-0.7,0.5
		c0,0.1,0,0.1,0,0.2c0,0.1,0,0.1,0,0.2c1.8,1.5,3.6,3.1,5.2,5c0.5,0.6,1,1.1,1.5,1.7c-1.1,1-2.2,2-3.3,3.1
		C263,230.9,261.8,232,260.6,233.1z"/>
	<path d="M242.8,220.8c0-0.2,0.1-0.4,0.3-0.5c0.2-0.1,0.3-0.3,0.3-0.6c0-0.1-0.1-0.3-0.2-0.4c-0.1-0.2-0.2-0.3-0.4-0.5
		c-0.2-0.2-0.3-0.3-0.5-0.5s-0.3-0.3-0.4-0.4c-0.2-0.2-0.4-0.4-0.7-0.6c-0.3-0.2-0.5-0.4-0.7-0.6c-0.2-0.2-0.5-0.4-0.7-0.6
		c-0.2-0.2-0.4-0.4-0.5-0.7c-0.1,0-0.1,0-0.2,0c-0.1,0-0.1,0-0.2,0c-1.5,1.8-3.1,3.6-5,5.2c-0.6,0.5-1.2,1.1-1.8,1.6
		c-0.8-0.8-1.6-1.7-2.4-2.5c-1.2-1.2-2.4-2.5-3.4-3.9c-0.2,0-0.4-0.1-0.5-0.3c-0.1-0.2-0.3-0.3-0.6-0.3c-0.1,0-0.3,0.1-0.4,0.2
		c-0.2,0.1-0.3,0.2-0.5,0.4c-0.2,0.2-0.3,0.3-0.5,0.5c-0.1,0.2-0.3,0.3-0.4,0.4c-0.2,0.2-0.4,0.4-0.6,0.7c-0.2,0.3-0.4,0.5-0.6,0.7
		c-0.2,0.2-0.4,0.5-0.6,0.7c-0.2,0.2-0.4,0.4-0.7,0.5c0,0.1,0,0.1,0,0.2c0,0.1,0,0.1,0,0.2c1.8,1.5,3.6,3.1,5.2,5
		c0.5,0.6,1,1.1,1.5,1.7c-1.1,1-2.2,2-3.3,3.1c-1.3,1.3-2.6,2.5-3.7,3.5c0,0.3,0.1,0.6,0.3,0.9c0.2,0.3,0.5,0.5,0.7,0.8
		c0.3,0.2,0.5,0.5,0.8,0.7c0.3,0.2,0.5,0.5,0.6,0.8c0.2,0.1,0.4,0.3,0.5,0.4c0.2,0.2,0.3,0.4,0.5,0.5c0.2,0.2,0.3,0.3,0.5,0.4
		c0.2,0.1,0.4,0.1,0.6,0c0.8-0.5,1.6-1.2,2.2-1.9c0.7-0.7,1.3-1.4,2-2.2c0.6-0.7,1.3-1.5,1.9-2.2c0.1-0.1,0.3-0.3,0.4-0.4
		c1,1.1,2,2.1,3,3.2c1.3,1.3,2.5,2.6,3.5,3.7c0.3,0,0.6-0.1,0.9-0.3c0.3-0.2,0.5-0.5,0.8-0.7c0.2-0.3,0.5-0.5,0.7-0.8
		c0.2-0.3,0.5-0.5,0.8-0.6c0.1-0.2,0.3-0.4,0.4-0.5c0.2-0.2,0.4-0.3,0.5-0.5s0.3-0.3,0.4-0.5c0.1-0.2,0.1-0.4,0-0.6
		c-0.5-0.8-1.2-1.6-1.9-2.2c-0.7-0.7-1.4-1.3-2.2-2c-0.7-0.6-1.5-1.3-2.2-1.9c-0.2-0.2-0.3-0.3-0.5-0.5c0.8-0.8,1.6-1.5,2.4-2.3
		C240.1,223,241.4,221.9,242.8,220.8z"/>
</g>
</svg>
