<?xml version="1.0" encoding="utf-8"?>
<!-- Generator: Adobe Illustrator 27.3.1, SVG Export Plug-In . SVG Version: 6.00 Build 0)  -->
<svg version="1.1" id="Layer_1" xmlns="http://www.w3.org/2000/svg" xmlns:xlink="http://www.w3.org/1999/xlink" x="0px" y="0px"
	 viewBox="0 0 208 208" style="enable-background:new 0 0 208 208;" xml:space="preserve">
<g>
	<path d="M78.1,14.5c0-0.2-0.1-0.1-0.1,0.1C78.1,14.7,78.1,14.7,78.1,14.5z"/>
	<path d="M42.7,44.3c0.1,0.8,0.2,1.6,0.2,2.4c0.2,0.7,0.4,1.5,0.7,2.4c0.3,0.9,0.5,1.6,0.5,2.3c0.2,0.7,0.5,1.5,0.7,2.5
		c0.2,0.9,0.5,1.9,0.7,2.8c0.3,0.9,0.6,1.8,1,2.6c0.4,0.8,0.9,1.4,1.5,1.8c0.4,0.6,0.9,1.1,1.5,1.4c0.7,0.3,1.4,0.4,2.1,0.4
		c0.7,0,1.4-0.1,2.1-0.4c0.7-0.3,1.3-0.6,1.7-1.1c0.7-1.4,1.1-3,1-4.8c-0.1-1.8-0.2-3.6-0.4-5.3c-0.2-2.1-0.6-4.3-1.1-6.7
		c-0.6-2.4-1.5-4.5-2.6-6.5c-0.2-1-0.6-2-1.2-3c-0.6-1-1.3-1.8-1.9-2.5c-0.8-0.3-1.4-0.3-2.1-0.2c-0.6,0.1-1.2,0.4-1.7,0.8
		c-0.5,0.4-0.9,0.8-1.3,1.4c-0.4,0.5-0.8,1.1-1.1,1.5c0,0.2,0.1,0.3,0.2,0.3c0.1,0,0.1,0.1,0.1,0.2c-0.4,0.8-0.6,1.7-0.7,2.5
		c-0.1,0.9-0.1,1.7-0.1,2.6C42.6,42.6,42.6,43.5,42.7,44.3z"/>
	<rect x="76.4" y="57.2" transform="matrix(0.964 -0.2658 0.2658 0.964 -12.4662 22.4036)" width="0.2" height="0.1"/>
	<rect x="38.3" y="67.7" transform="matrix(0.964 -0.2658 0.2658 0.964 -16.6276 12.6546)" width="0.2" height="0.1"/>
	<path d="M43,121.1l0-0.1C42.9,121.1,42.9,121.1,43,121.1z"/>
	<path d="M40,25c0-0.2-0.1-0.1-0.1,0.1C40,25.2,40,25.2,40,25z"/>
	<path d="M150.6,102.8c0.8-0.2,1.6-0.5,2.4-0.7c0.8-0.3,1.6-0.6,2.3-1c0.7-0.4,1.3-0.8,1.8-1.4c0.5-0.6,0.8-1.3,0.9-2.1
		c0.4-1.1,0.6-2.3,0.7-3.7c0.1-1.3,0.1-2.7-0.1-4.1c-0.2-1.4-0.5-2.8-0.9-4.1c-0.4-1.4-1-2.6-1.6-3.8c-0.1-0.1-0.1-0.1-0.2,0
		c-0.1,0-0.1,0-0.2-0.1c-0.4-1.5-0.9-2.9-1.7-4.1c-0.8-1.2-1.8-2.3-2.8-3.2c-1.1-0.9-2.3-1.6-3.6-2.2c-1.3-0.5-2.7-0.8-4-0.8
		c-0.2,0.2-0.5,0.4-1,0.6c-0.5,0.2-0.9,0.3-1.2,0.4c1.4,5,2.8,10,4.2,14.9C146.8,92.4,148.5,97.5,150.6,102.8z"/>
	<rect x="101.7" y="115.9" transform="matrix(0.964 -0.2658 0.2658 0.964 -27.1491 31.2254)" width="0.2" height="0.1"/>
	<path d="M114.3,57l0,0.1C114.5,57,114.5,56.9,114.3,57z"/>
	<path d="M80.8,33.8c0.1,0.8,0.2,1.6,0.2,2.4c0.2,0.7,0.4,1.5,0.7,2.4c0.3,0.9,0.5,1.6,0.5,2.3c0.2,0.7,0.5,1.5,0.7,2.5
		c0.2,0.9,0.5,1.9,0.7,2.8c0.3,0.9,0.6,1.8,1,2.6c0.4,0.8,0.9,1.4,1.5,1.8c0.4,0.6,0.9,1.1,1.5,1.4c0.7,0.3,1.4,0.4,2.1,0.4
		c0.7,0,1.4-0.1,2.1-0.4c0.7-0.3,1.3-0.6,1.7-1.1c0.7-1.4,1.1-3,1-4.8c-0.1-1.8-0.2-3.6-0.4-5.3c-0.2-2.1-0.6-4.3-1.1-6.7
		c-0.6-2.4-1.5-4.5-2.6-6.5c-0.2-1-0.6-2-1.2-3c-0.6-1-1.3-1.8-1.9-2.5c-0.8-0.3-1.4-0.3-2.1-0.2c-0.6,0.1-1.2,0.4-1.7,0.8
		c-0.5,0.4-0.9,0.8-1.3,1.4c-0.4,0.5-0.8,1.1-1.1,1.5c0,0.2,0.1,0.3,0.2,0.3c0.1,0,0.1,0.1,0.1,0.2c-0.4,0.8-0.6,1.7-0.7,2.5
		c-0.1,0.9-0.1,1.7-0.1,2.6C80.7,32.1,80.7,33,80.8,33.8z"/>
	<path d="M106.4,84.4c0,0.2,0.1,0.3,0.2,0.3c0.1,0,0.1,0.1,0.1,0.2c-0.4,0.8-0.6,1.7-0.7,2.5c-0.1,0.9-0.1,1.7-0.1,2.6
		c0,0.9,0.1,1.7,0.2,2.6c0.1,0.8,0.2,1.6,0.2,2.4c0.2,0.7,0.4,1.5,0.7,2.4c0.3,0.9,0.5,1.6,0.5,2.3c0.2,0.7,0.5,1.5,0.7,2.5
		c0.2,0.9,0.5,1.9,0.7,2.8c0.3,0.9,0.6,1.8,1,2.6c0.4,0.8,0.9,1.4,1.5,1.8c0.4,0.6,0.9,1.1,1.5,1.4c0.7,0.3,1.4,0.4,2.1,0.4
		c0.7,0,1.4-0.1,2.1-0.4c0.7-0.3,1.3-0.6,1.7-1.1c0.7-1.4,1.1-3,1-4.8c-0.1-1.8-0.2-3.6-0.4-5.3c-0.2-2.1-0.6-4.3-1.1-6.7
		c-0.6-2.4-1.5-4.5-2.6-6.5c-0.2-1-0.6-2-1.2-3c-0.6-1-1.3-1.8-1.9-2.5c-0.8-0.3-1.4-0.3-2.1-0.2c-0.6,0.1-1.2,0.4-1.7,0.8
		c-0.5,0.4-0.9,0.8-1.3,1.4C107.1,83.4,106.7,83.9,106.4,84.4z"/>
	<path d="M103.2,73.2c0.1,0.1,0.2,0.1,0.1-0.1C103.3,73,103.3,73,103.2,73.2z"/>
	<path d="M89.2,158.3c0.1,0.3,0,0.4-0.2,0.4c0,0.1,0.1,0.2,0.3,0.2c0.1,0,0.2,0.1,0.2,0.4c0,0.2,0,0.3-0.1,0.4
		c-0.1,0.1-0.2,0.2-0.1,0.4c0.1,0.1,0.2,0.2,0.1,0.3c0,0.2,0,0.3,0,0.5c0.4,1.5,0.5,3,0.5,4.5c0,1.5,0,3.1,0.2,4.8
		c-0.2,0.1-0.3,0.2-0.4,0.3c0.4,0.5,0.6,1,0.6,1.5c0,0.5,0,1.2,0.1,1.8c1.2-0.3,2.3-0.7,3.3-1.2c1-0.5,2.2-0.9,3.5-1.3
		c-1.3-1.8-2.5-3.9-3.8-6.2C92.1,162.7,90.7,160.4,89.2,158.3z"/>
	<path d="M208,119.9V21.4C208,9.6,198.4,0,186.6,0h-51.9c-0.1,0.5-0.3,1.1-0.5,1.6c-0.3,0.9-0.6,1.8-1,2.7c-0.3,0.9-0.6,1.8-0.9,2.7
		c-0.9,3-1.7,5.8-2.6,8.7c-0.8,2.8-1.6,5.7-2.3,8.7c3.3,3.6,6.7,7.4,10.1,11.1c3.4,3.8,6.8,7.5,10.1,11.1c1,0.4,1.6,0.9,1.8,1.6
		c0.2,0.7,0.1,1.4-0.4,2.2c-0.8,0.5-1.7,0.9-2.6,1.3c-0.9,0.3-1.8,0.6-2.8,0.8c-0.9,0.2-1.9,0.5-2.8,0.7c-0.9,0.3-1.8,0.6-2.7,1
		c-0.9-1.3-1.8-2.5-2.8-3.7c-0.9-1.1-1.9-2.3-2.8-3.4c-0.9-1.2-1.8-2.3-2.8-3.5c-0.9-1.2-1.8-2.5-2.7-3.8c-0.1,0-0.2,0-0.2-0.1
		c-0.1,0-0.1-0.1-0.3-0.1c-0.6-0.9-1.3-1.7-2.1-2.4c-0.7-0.7-1.4-1.4-2.1-2.3c-0.3,0.3-0.5,0.6-0.6,1c-0.1,0.4-0.1,0.7,0,1.1
		c0.1,0.4,0.1,0.8,0.3,1.2c0.1,0.4,0.3,0.8,0.4,1.1c0.4,1.1,0.8,2.3,1.3,3.5c0.4,1.2,1,2.4,1.5,3.6c0.1,0.3,0.2,0.7,0.1,1.1
		c-0.1,0.4,0,0.8,0.1,1.1c0.2,0.5,0.4,1,0.6,1.5c0.2,0.5,0.4,1.1,0.5,1.7c0.2,0.7,0.4,1.3,0.7,1.9c0.3,0.6,0.5,1.2,0.6,1.7
		c0.1,0.5,0.1,1-0.1,1.3c-0.2,0.4-0.7,0.6-1.4,0.8c-3.6,0.4-6.9,1.3-9.9,2.7c-0.2-0.2-0.3-0.2-0.5-0.1c-0.2,0.1-0.5,0.1-0.7,0.1
		c-0.1-0.3-0.3-0.5-0.7-0.6c0.1-0.4,0.1-0.8-0.1-1.1c-0.2-0.3-0.2-0.6-0.1-0.8c-0.1-0.1-0.2-0.1-0.3-0.1c-0.1,0-0.2-0.1-0.1-0.2
		l0.1-0.2c-0.7-3.9-1.7-7.9-3-12c-1.3-4.1-2.3-8.2-3.2-12.2c-0.4-2-0.9-4-1.4-6.1c-0.5-2.1-1.1-4.2-1.6-6.2c-0.6-2-1.1-4-1.6-5.8
		c-0.5-1.9-1-3.6-1.3-5.1c0-0.5,0-1-0.1-1.5c-0.1-0.5-0.3-1-0.7-1.3c0-0.4,0.1-0.7,0.3-0.9c0.2-0.2,0.3-0.5,0.3-0.8
		c0.2,0,0.4,0,0.4-0.1c0-0.1,0.1-0.2,0.4-0.2c0.1,0,0.2,0.1,0.2,0.1c0,0.1,0.1,0.1,0.2,0.1c0.5-0.4,1-0.7,1.7-1
		c0.7-0.2,1.4-0.5,2.1-0.7s1.5-0.4,2.2-0.6c0.7-0.2,1.4-0.4,2-0.7c0.4,0.1,0.8,0.2,1.4,0.3c0.5,0.1,0.8,0.4,0.7,1
		c0.6,1.2,1.1,2.6,1.5,4.2c0.4,1.6,0.7,3.1,0.9,4.4c0.4,1.1,0.8,2.2,1.1,3.3c0.3,1.1,0.6,2.2,0.9,3.2c1-3.1,1.9-6.3,2.9-9.5
		c0.9-3,1.7-5.9,2.5-8.7H71H21.4C9.6,0,0,9.6,0,21.4v10.9c0.3-0.1,0.5-0.2,0.8-0.2c1.2-0.3,2.5-0.6,3.7-0.9c1.2-0.3,2.2-0.8,3-1.4
		c0.2,0,0.4,0,0.6,0.1C8.2,29.9,8.4,30,8.6,30C9,32,9.5,34,10.1,36.1c0.6,2.1,1.2,4.3,1.7,6.5c0.6,2.2,1.1,4.4,1.7,6.7
		c0.6,2.2,1.1,4.3,1.5,6.4c1,2.6,1.7,5.4,2.2,8.4c0.5,3,1.1,5.8,1.8,8.5c0.3,0.2,0.5,0.4,0.7,0.4c1-0.1,2.1-0.4,3.4-0.7
		c1.3-0.4,2.5-0.8,3.8-1.2c1.3-0.4,2.5-0.9,3.8-1.3c1.2-0.4,2.3-0.8,3.2-1.2c0.2,0.5,0.5,0.9,1,1c0.1,1.2,0.3,2.3,0.5,3.3
		c0.3,1,0.5,2,0.8,3c0.3,1,0.5,2,0.7,3c0.2,1,0.3,2,0.3,3.1c-4.5,1.2-9,2.3-13.6,3.4c-4.5,1.1-8.9,2.3-13.2,3.6
		c-0.6-0.4-1-0.8-1.1-1.3c-0.1-0.5-0.4-1-0.8-1.6c-0.7-3-1.5-5.8-2.2-8.7c-0.8-2.8-1.5-5.7-2.3-8.6c-0.8-2.9-1.5-5.8-2.2-8.9
		c-0.7-3-1.3-6.2-1.8-9.6c0,0,0,0,0-0.1V91v95.6C0,198.4,9.6,208,21.4,208H30h13.4c0-0.1,0-0.2,0-0.2c-0.1-0.6-0.2-1.3-0.3-2
		c-0.1-0.7-0.3-1.3-0.6-1.9c-0.1-1.4-0.4-2.8-0.9-4.3c-0.5-1.5-0.9-2.9-1.4-4.3c-0.3-1.9-0.8-4-1.4-6.3c-0.7-2.3-1.4-4.4-2.2-6.6
		c0-0.2,0-0.4-0.1-0.4c0-0.1,0-0.2,0-0.4c-0.6-1.9-1.2-3.8-1.7-5.8c-0.5-1.9-1.1-3.9-1.6-5.8c-0.5-1.9-1-3.8-1.6-5.7
		c-0.6-1.9-1.2-3.7-1.9-5.5c0-0.4,0.1-0.8,0.1-1.3c0-0.4,0.1-0.8,0.3-1.2c1.2-0.2,2.3-0.5,3.3-0.8c1.1-0.3,2.1-0.6,3.2-0.9
		c1.1-0.3,2.1-0.6,3.2-0.8c1.1-0.2,2.3-0.4,3.5-0.4c0.2,0.3,0.4,0.6,0.7,0.8c0.3,0.2,0.6,0.4,0.9,0.6c-0.1,0.4,0,0.7,0.4,1.1
		c0.3,0.3,0.7,0.6,1,0.7c0.3,0.7,0.8,1.5,1.5,2.4c0.7,0.9,1.3,1.6,1.9,2.3c1.3,1.8,2.5,3.6,3.6,5.4c1.1,1.8,2.4,3.5,3.8,5.2
		c-0.1-1.9-0.4-3.7-0.8-5.7c-0.4-1.9-0.8-3.8-1.3-5.7c-0.4-1.9-0.8-3.7-1.2-5.5c-0.3-1.8-0.5-3.5-0.5-5.2c0.3-0.1,0.5-0.3,0.7-0.4
		c0.2-0.2,0.3-0.4,0.3-0.6c1.4-0.2,2.8-0.5,4.3-0.9c1.5-0.4,2.9-1,4.2-1.6c0.3,0.1,0.6,0.4,0.9,0.7c0.3,0.4,0.3,0.7,0,1
		c1.2,4.1,2.3,8.1,3.3,12.2c1,4,2.2,8.1,3.4,12.1c0,0,0,0.1,0.1,0c0,0,0.1,0,0-0.1c1.3,4.8,2.6,9.6,4.1,14.5
		c1.4,4.9,2.6,9.6,3.5,14.3c-0.8,0.4-1.7,0.8-2.7,1.1c-1,0.3-1.9,0.5-2.9,0.8c-1,0.2-2,0.5-3,0.7c-1,0.3-1.9,0.6-2.9,0.9
		c-0.2-0.2-0.3-0.3-0.5-0.4c-0.2,0-0.4-0.1-0.6-0.1c-1.1-2.2-2.3-4.4-3.6-6.4c-1.3-2.1-2.7-4.1-4.2-6.1c-1.5-2-3-4-4.5-6
		c-1.5-2-3.1-4.1-4.6-6.3c0.1,0.8,0.3,1.8,0.6,2.8c0.3,1,0.6,2.1,0.9,3.3c0.3,1.1,0.6,2.3,0.9,3.4c0.3,1.1,0.6,2.2,0.9,3.2
		c0.7,2.4,1.3,4.9,1.9,7.5c0.6,2.5,1.3,5,2.2,7.4c-0.2,0.4-0.4,0.8-0.7,1.1H78h108.6c11.8,0,21.4-9.6,21.4-21.4V165
		c-0.4,0.3-0.9,0.6-1.4,0.7c-0.2,0.1-0.3,0.2-0.4,0.3c-0.1,0.1-0.2,0.2-0.3,0.4c-0.5,0-1.1,0.1-1.8,0.5c-0.6,0.3-1.2,0.8-1.8,1.2
		c-0.2-0.2-0.4-0.3-0.7-0.1c-0.3,0.2-0.6,0.2-0.8,0.2c-0.1,0.3-0.2,0.5-0.5,0.8c-0.3,0.2-0.5,0.2-0.8-0.1c-1.3,0.2-2.5,0.4-3.5,0.6
		c-1,0.2-2.2,0.4-3.5,0.7c-0.1,0-0.1-0.2-0.2-0.4c-0.8,0.3-1.6,0.3-2.3,0c-0.7-0.3-1.4-0.5-2.1-0.5c-1.5-4.2-2.9-8.6-4.2-13.2
		c-1.4-4.5-2.5-8.8-3.4-12.8c-0.4-1.9-0.8-3.9-1.3-5.9c-0.5-2-1-4-1.6-6c-0.6-2-1.1-3.9-1.8-5.7c-0.6-1.8-1.2-3.6-1.8-5.1
		c0-0.4,0-0.7-0.1-0.9c0-0.2,0-0.5,0-0.8c1-1.2,2.2-2.2,3.6-3.2c1.4-1,2.8-1.8,4.4-2.4c1.5-0.6,3.1-1.1,4.8-1.4
		c1.6-0.3,3.2-0.3,4.7-0.2c0.8-0.1,1.6-0.1,2.2,0c0.6,0.2,1.4,0.2,2.3,0c3.9,1.4,7.4,3.6,10.5,6.5
		C206.9,118.7,207.4,119.3,208,119.9z M127.9,65.8c1-1.2,2.2-2.2,3.6-3.2c1.4-1,2.8-1.8,4.4-2.4c1.5-0.6,3.1-1.1,4.8-1.4
		c1.6-0.3,3.2-0.3,4.7-0.2c0.8-0.1,1.6-0.1,2.2,0c0.6,0.2,1.4,0.2,2.3,0c3.9,1.4,7.4,3.6,10.5,6.5c3.1,2.9,5.5,6.5,7.3,10.8
		c0.6,1.7,1.1,3.6,1.5,5.6c0.4,2,0.9,3.9,1.4,5.6c0.1,2.2,0.2,4.4,0.2,6.5c0,2.1-0.1,4.3-0.5,6.4c-0.3,0-0.5,0.2-0.6,0.6
		c0,0.4,0,0.8,0,1.2c-0.5,1.1-1.1,2.3-1.7,3.5c-0.6,1.2-1.2,2.4-1.8,3.6c-0.1,0.1-0.2,0.1-0.2-0.1c0-0.1,0-0.2-0.1-0.3
		c-0.5,0.2-0.9,0.5-1.3,0.9c-0.4,0.4-0.8,0.8-1.2,1.3c-0.4,0.4-0.8,0.9-1.3,1.3c-0.5,0.4-1,0.7-1.6,0.8c-0.2,0.1-0.3,0.2-0.4,0.3
		c-0.1,0.1-0.2,0.2-0.3,0.4c-0.5,0-1.1,0.1-1.8,0.5c-0.6,0.3-1.2,0.8-1.8,1.2c-0.2-0.2-0.4-0.3-0.7-0.1c-0.3,0.2-0.6,0.2-0.8,0.2
		c-0.1,0.3-0.2,0.5-0.5,0.8c-0.3,0.2-0.5,0.2-0.8-0.1c-1.3,0.2-2.5,0.4-3.5,0.6c-1,0.2-2.2,0.4-3.5,0.7c-0.1,0-0.1-0.2-0.2-0.4
		c-0.8,0.3-1.6,0.3-2.3,0c-0.7-0.3-1.4-0.5-2.1-0.5c-1.5-4.2-2.9-8.6-4.2-13.2c-1.4-4.5-2.5-8.8-3.4-12.8c-0.4-1.9-0.8-3.9-1.3-5.9
		c-0.5-2-1-4-1.6-6c-0.6-2-1.1-3.9-1.8-5.7c-0.6-1.8-1.2-3.6-1.8-5.1c0-0.4,0-0.7-0.1-0.9C127.8,66.4,127.8,66.1,127.9,65.8z
		 M113.3,68c0.9-0.1,1.7,0,2.5,0.1c2.2,0.5,4.2,1.6,6,3.3c1.7,1.7,3.1,3.7,4.1,6c1.2,2.1,2.4,4.3,3.4,6.7c1.1,2.3,2,4.8,2.8,7.3
		c0.8,2.5,1.4,5,1.8,7.6c0.4,2.6,0.5,5.1,0.3,7.6c0.1,1,0.1,2,0.1,3.1c0,1.1-0.2,2.2-0.5,3.2c-0.3,1.1-0.7,2-1.3,3
		c-0.6,0.9-1.3,1.8-2.2,2.5c0.1,0.1,0.1,0.1,0.2,0.1c0,0,0.1,0,0.1,0c-0.4,0.5-0.8,0.9-1.3,1.3c-0.5,0.4-0.9,0.9-1.3,1.3
		c-1.3,1.2-2.7,2.1-4.4,2.9c-1.6,0.7-3.3,1.3-5.1,1.5c-1.8,0.3-3.5,0.4-5.3,0.2c-1.7-0.2-3.4-0.6-4.9-1.3c-0.4-0.6-0.9-0.8-1.6-0.6
		c-0.4-0.5-0.8-0.9-1.3-1.3c-0.5-0.4-1-0.8-1.5-1.3c-0.5-0.4-1-0.9-1.4-1.5c-0.4-0.5-0.7-1.2-1-1.9c-1.8-2.7-3.3-5.7-4.5-8.9
		c-1.2-3.2-2.2-6.5-2.8-9.9c-0.6-3.4-1-6.8-1-10.2c0-3.4,0.2-6.6,0.8-9.7c0.8-1.3,1.6-2.6,2.3-3.9c0.8-1.3,1.7-2.5,2.9-3.6
		c1-0.5,1.8-1,2.5-1.6c0.7-0.6,1.7-1,2.9-1.4c1.1-0.3,2.1-0.4,3.1-0.5c1,0,2,0,2.9,0C111.6,68.1,112.4,68.1,113.3,68z M68.8,20.5
		c0.8-1.3,1.6-2.6,2.3-3.9c0.8-1.3,1.7-2.5,2.9-3.6c1-0.5,1.8-1,2.5-1.6c0.7-0.6,1.7-1,2.9-1.4c1.1-0.3,2.1-0.4,3.1-0.5
		c1,0,2,0,2.9,0c0.9,0,1.7,0,2.6-0.1c0.9-0.1,1.7,0,2.5,0.1c2.2,0.5,4.2,1.6,6,3.3c1.7,1.7,3.1,3.7,4.1,6c1.2,2.1,2.4,4.3,3.4,6.7
		c1.1,2.3,2,4.8,2.8,7.3c0.8,2.5,1.4,5,1.8,7.6c0.4,2.6,0.5,5.1,0.3,7.6c0.1,1,0.1,2,0.1,3.1c0,1.1-0.2,2.2-0.5,3.2
		c-0.3,1.1-0.7,2-1.3,3c-0.6,0.9-1.3,1.8-2.2,2.5c0.1,0.1,0.1,0.1,0.2,0.1c0,0,0.1,0,0.1,0c-0.4,0.5-0.8,0.9-1.3,1.3
		s-0.9,0.9-1.3,1.3c-1.3,1.2-2.7,2.1-4.4,2.9c-1.6,0.7-3.3,1.3-5.1,1.5c-1.8,0.3-3.5,0.4-5.3,0.2c-1.7-0.2-3.4-0.6-4.9-1.3
		c-0.4-0.6-0.9-0.8-1.6-0.6c-0.4-0.5-0.8-0.9-1.3-1.3c-0.5-0.4-1-0.8-1.5-1.3c-0.5-0.4-1-0.9-1.4-1.5c-0.4-0.5-0.7-1.2-1-1.9
		c-1.8-2.7-3.3-5.7-4.5-8.9c-1.2-3.2-2.2-6.5-2.8-9.9c-0.6-3.4-1-6.8-1-10.2C67.9,26.8,68.2,23.6,68.8,20.5z M33.7,60.8
		c-1.2-3.2-2.2-6.5-2.8-9.9c-0.6-3.4-1-6.8-1-10.2c0-3.4,0.2-6.6,0.8-9.7c0.8-1.3,1.6-2.6,2.3-3.9c0.8-1.3,1.7-2.5,2.9-3.6
		c1-0.5,1.8-1,2.5-1.6c0.7-0.6,1.7-1,2.9-1.4c1.1-0.3,2.1-0.4,3.1-0.5c1,0,2,0,2.9,0c0.9,0,1.7,0,2.6-0.1c0.9-0.1,1.7,0,2.5,0.1
		c2.2,0.5,4.2,1.6,6,3.3c1.7,1.7,3.1,3.7,4.1,6c1.2,2.1,2.4,4.3,3.4,6.7c1.1,2.3,2,4.8,2.8,7.3c0.8,2.5,1.4,5,1.8,7.6
		c0.4,2.6,0.5,5.1,0.3,7.6c0.1,1,0.1,2,0.1,3.1c0,1.1-0.2,2.2-0.5,3.2c-0.3,1.1-0.7,2-1.3,3c-0.6,0.9-1.3,1.8-2.2,2.5
		c0.1,0.1,0.1,0.1,0.2,0.1c0,0,0.1,0,0.1,0c-0.4,0.5-0.8,0.9-1.3,1.3c-0.5,0.4-0.9,0.9-1.3,1.3c-1.3,1.2-2.7,2.1-4.4,2.9
		c-1.6,0.7-3.3,1.3-5.1,1.5c-1.8,0.3-3.5,0.4-5.3,0.2c-1.7-0.2-3.4-0.6-4.9-1.3c-0.4-0.6-0.9-0.8-1.6-0.6c-0.4-0.5-0.8-0.9-1.3-1.3
		c-0.5-0.4-1-0.8-1.5-1.3c-0.5-0.4-1-0.9-1.4-1.5c-0.4-0.5-0.7-1.2-1-1.9C36.4,66.9,34.9,64,33.7,60.8z M59.4,129.9
		c0.1,0.7,0,1.3-0.4,1.8c0.2,0,0.3,0.3,0.1,0.7c-0.1,0.4-0.3,0.7-0.5,0.8c0,0.2,0.1,0.3,0.2,0.2c0.1,0,0.2,0.1,0.2,0.2
		c-0.6,1.3-1.2,2.5-2,3.8c-0.8,1.3-1.7,2.4-2.7,3.5c-1,1.1-2.2,1.9-3.4,2.6c-1.3,0.7-2.6,1.1-4.2,1.3c-1.1,0.5-2.2,0.9-3.4,1.2
		c-1.2,0.3-2.3,0.4-3.2,0.3c-2.9,0.4-5.5-0.1-7.9-1.5c-2.4-1.4-4.4-3.4-6.3-5.8c-1.8-2.4-3.3-5.1-4.6-8.1c-1.2-3-2.1-5.8-2.7-8.5
		c-0.4-1.9-0.8-3.9-1-6c-0.2-2.1-0.5-4.1-0.7-5.9c0.4-2.7,1.1-5.4,2.1-8c1-2.6,2.2-5,3.5-7.2c0,0,0.1,0,0.1,0.2
		c0.7-0.6,1.2-1.4,1.6-2.2c1-1.1,2.2-2.1,3.5-3c1.3-0.9,2.7-1.7,4.2-2.3c1.5-0.6,3.1-1.1,4.7-1.4c1.6-0.3,3.3-0.4,4.9-0.2
		c1.1,0.2,2.2,0.5,3.2,0.8c1,0.3,2,0.7,3,1c0.1,0.2,0.1,0.4,0.3,0.7c0.1,0.2,0.1,0.4,0,0.6c0.1,0.2,0.2,0.3,0.3,0.4
		c0.1,0,0.2,0.1,0.2,0.2c-0.2,0.3-0.2,0.5,0,0.6c0.2,0.2,0.2,0.4,0,0.7c0,0.1,0,0.1,0.2,0c0.1-0.1,0.2-0.1,0.2,0
		c-0.2,1.4-0.3,2.6-0.6,3.8c-0.2,1.2-0.4,2.4-0.4,3.7c-0.1,0.1-0.2,0.1-0.5,0.2c0,0.6-0.1,1.1-0.3,1.5c-0.2,0.4-0.4,0.8-0.7,1.1
		c-0.3,0.3-0.6,0.7-0.9,1c-0.3,0.3-0.5,0.6-0.7,1c-0.8-0.3-1.5-0.6-2.3-1c-0.8-0.4-1.6-0.7-2.4-1c-0.8-0.3-1.6-0.4-2.5-0.5
		c-0.8,0-1.7,0.2-2.5,0.6c-0.4,0.5-0.9,1.1-1.6,1.5c-0.7,0.5-1.3,1.1-1.7,1.8c0,0-0.1-0.1-0.1-0.3c-0.2,0.5-0.5,1-0.7,1.5
		c-0.2,0.5-0.3,1-0.3,1.6c-0.4,0.6-0.6,1.4-0.7,2.2c-0.1,0.8-0.3,1.5-0.4,2.1c0.1,0.4,0.2,0.8,0.2,1.2c0,0.5,0,0.9,0,1.3
		c0,0.4,0,0.9,0,1.3c0,0.4,0,0.7,0.1,0.9c0.2,1.1,0.5,2.3,0.9,3.6c0.4,1.3,0.8,2.6,1.3,3.8c0.5,1.2,1.1,2.4,1.8,3.5
		c0.7,1.1,1.4,2,2.1,2.8c0.1,0,0.2,0,0.2-0.1c0-0.1,0.1-0.1,0.2-0.1c0,0.2,0.1,0.3,0.2,0.4c0.1,0.1,0.2,0.1,0.3,0.2
		c0.1,0,0.2,0.1,0.3,0.2c0.1,0.1,0.2,0.2,0.2,0.4c0.8,0.4,1.7,0.7,2.8,0.7c1.1,0.1,2.1,0,3.1-0.3c1-0.3,2-0.7,2.7-1.4
		c0.8-0.6,1.3-1.4,1.6-2.4c0-1.4,0-2.8,0-4.2c0-1.5-0.2-2.7-0.6-3.8c-0.6,0-1.4,0.2-2.2,0.4c-0.8,0.2-1.5,0.5-2,0.7l0,0.1
		c-0.8,0.2-1.5,0.3-2.1,0.5c-0.6,0.2-1.3,0.2-2,0c-0.1-1-0.3-2-0.5-2.9c-0.3-0.9-0.6-1.8-0.8-2.8c-0.3-0.9-0.5-1.8-0.6-2.7
		c-0.1-0.9-0.1-1.8,0.1-2.6c2.5-0.7,5.1-1.4,7.8-2.3c2.8-0.8,5.3-1.6,7.7-2.5c0.8,0.1,1.4,0.4,1.6,1c0.2,0.6,0.5,1.2,0.9,1.7
		c0,0.4,0.1,0.6,0.2,0.8c0.1,0.1,0.2,0.4,0.1,0.8c0.7,1.5,1.2,3,1.5,4.6c0.2,1.6,0.5,3.2,0.9,4.7c0.2,1.2,0.6,2.5,1,3.8
		c0.4,1.3,0.5,2.6,0.3,4c0,0.1,0.1,0.1,0.2,0.2c0.1,0,0.2,0.1,0.3,0.1C59.4,128.6,59.3,129.2,59.4,129.9z M75.1,136.1
		c-1.7-0.2-3.4-0.6-4.9-1.3c-0.4-0.6-0.9-0.8-1.6-0.6c-0.4-0.5-0.8-0.9-1.3-1.3c-0.5-0.4-1-0.8-1.5-1.3c-0.5-0.4-1-0.9-1.4-1.5
		c-0.4-0.5-0.7-1.2-1-1.9c-1.8-2.7-3.3-5.7-4.5-8.9c-1.2-3.2-2.2-6.5-2.8-9.9c-0.6-3.4-1-6.8-1-10.2c0-3.4,0.2-6.6,0.8-9.7
		c0.8-1.3,1.6-2.6,2.3-3.9c0.8-1.3,1.7-2.5,2.9-3.6c1-0.5,1.8-1,2.5-1.6c0.7-0.6,1.7-1,2.9-1.4c1.1-0.3,2.1-0.4,3.1-0.5
		c1,0,2,0,2.9,0c0.9,0,1.7,0,2.6-0.1c0.9-0.1,1.7,0,2.5,0.1c2.2,0.5,4.2,1.6,6,3.3c1.7,1.7,3.1,3.7,4.1,6c1.2,2.1,2.4,4.3,3.4,6.7
		c1.1,2.3,2,4.8,2.8,7.3c0.8,2.5,1.4,5,1.8,7.6c0.4,2.6,0.5,5.1,0.3,7.6c0.1,1,0.1,2,0.1,3.1c0,1.1-0.2,2.2-0.5,3.2
		c-0.3,1.1-0.7,2-1.3,3c-0.6,0.9-1.3,1.8-2.2,2.5c0.1,0.1,0.1,0.1,0.2,0.1c0,0,0.1,0,0.1,0c-0.4,0.5-0.8,0.9-1.3,1.3
		s-0.9,0.9-1.3,1.3c-1.3,1.2-2.7,2.1-4.4,2.9c-1.6,0.7-3.3,1.3-5.1,1.5C78.6,136.2,76.9,136.3,75.1,136.1z M116.8,191.1
		c-1,0.3-1.9,0.6-2.9,0.8c-0.9,0.2-1.8,0.5-2.7,0.7c-0.9,0.2-1.8,0.6-2.6,0.9c-0.1-0.1-0.2-0.1-0.3-0.1c-0.1,0-0.1-0.1-0.2-0.2
		c-0.1,0.1-0.1,0.1-0.1,0.2c0,0.1-0.1,0.1-0.2,0c-0.4-0.9-0.8-1.9-1.3-3c-0.4-1.1-0.9-2.1-1.4-3.2c-0.5-1.1-1-2.2-1.6-3.2
		c-0.6-1-1.2-1.9-1.9-2.7c-1,0.1-1.9,0.3-2.8,0.6s-1.8,0.5-2.6,0.8c-0.9,0.3-1.7,0.5-2.6,0.8c-0.9,0.2-1.8,0.4-2.8,0.6
		c0,0.8,0,1.7-0.1,2.6c0,0.9,0.1,1.6,0.3,2.2c-0.1,0.1-0.2,0.1-0.3,0.2c-0.1,0-0.2,0.1-0.3,0.2c0,0.5,0,1.1,0.2,1.8
		c0.2,0.6,0.1,1.3-0.3,1.9c0,0,0.1,0,0.4,0c-0.2,0.5-0.2,0.9,0,1.3c0.2,0.4,0.1,0.8-0.2,1.3c0.3,0.3,0.4,0.7,0.3,1
		c-0.1,0.3-0.2,0.7-0.1,1.2c-1.5,0.7-3.2,1.3-5.1,1.9c-1.9,0.6-3.9,0.9-5.9,0.9c-0.1-0.3-0.3-0.6-0.3-0.7c-0.1-0.1-0.2-0.4-0.3-0.7
		c0.2,0,0.3,0,0.3-0.1c0-0.1,0.1-0.2,0.2-0.3c-0.2-0.6-0.3-1.3-0.3-2.1c0-0.8,0-1.6,0.1-2.4c0.1-0.8,0.1-1.6,0.2-2.5
		c0.1-0.8,0-1.7-0.2-2.5c0.3-2.7,0.5-5.4,0.5-8.2c0-2.8-0.1-5.7-0.2-8.6c-0.1-2.9-0.2-5.8-0.2-8.7c-0.1-2.9,0-5.6,0.3-8.3
		c-0.2-0.3-0.2-0.6-0.1-0.9c0.1-0.3,0-0.6-0.2-0.7c0.2-3.1,0.1-6.1-0.3-9.1c0.2-0.1,0.3-0.3,0.4-0.3c0.1-0.1,0.2-0.2,0.2-0.5
		c2.2-0.3,4.3-0.7,6.4-1.3c2.1-0.6,4.1-1.2,5.9-1.7c0.2,0.2,0.3,0.4,0.3,0.6c0.1,0.2,0.2,0.3,0.5,0.2c0.4,1.4,0.9,2.8,1.6,4
		c0.7,1.2,1.4,2.4,2.2,3.6c0.8,1.2,1.5,2.4,2.3,3.6c0.7,1.2,1.4,2.5,1.9,3.9c0.8,1.1,1.5,2.4,2.4,3.8c0.8,1.4,1.6,2.7,2.3,4.1
		c0,0.1,0.1,0.1,0.2,0.1c0.1,0,0.1,0,0.2,0.1c0.1,0.6,0.3,1,0.7,1.1c0.3,0.7,0.7,1.4,1.1,2.2c0.5,0.7,0.9,1.5,1.4,2.2
		c0.5,0.7,0.9,1.5,1.3,2.2c0.4,0.7,0.7,1.4,1,2.1c0.1,0,0.2,0,0.1-0.1c-0.1-0.1,0-0.2,0.1-0.1c0.5,1.3,1.1,2.5,1.7,3.4
		c0.6,1,1.2,1.9,1.9,2.9c0,0.1-0.1,0.1-0.3,0.1c0,0.2,0.1,0.2,0.2,0.2c0.1,0,0.1-0.1,0.2-0.1c0.2,0.8,0.5,1.5,1,2.2
		c0.4,0.7,0.9,1.4,1.3,2.1c0.4,0.7,0.8,1.4,1.1,2.2c0.3,0.8,0.5,1.5,0.5,2.4c0.2,0.1,0.2,0.1,0.2,0c0-0.1,0-0.2,0.2-0.2
		c0,0.1,0,0.2,0.1,0.3c0.1,0,0.1,0.1,0.1,0.3C118.8,190.4,117.8,190.8,116.8,191.1z M154.6,180.2c-0.8,0.5-1.7,0.9-2.6,1.3
		c-0.9,0.3-1.8,0.6-2.8,0.8c-0.9,0.2-1.9,0.5-2.8,0.7c-0.9,0.3-1.8,0.6-2.7,1c-0.9-1.3-1.8-2.5-2.8-3.7c-0.9-1.1-1.9-2.3-2.8-3.4
		c-0.9-1.2-1.8-2.3-2.8-3.5c-0.9-1.2-1.8-2.5-2.7-3.8c-0.1,0-0.2,0-0.2-0.1c-0.1,0-0.1-0.1-0.3-0.1c-0.6-0.9-1.3-1.7-2.1-2.4
		c-0.7-0.7-1.4-1.4-2.1-2.3c-0.3,0.3-0.5,0.6-0.6,1c-0.1,0.4-0.1,0.7,0,1.1c0.1,0.4,0.1,0.8,0.3,1.2c0.1,0.4,0.3,0.8,0.4,1.1
		c0.4,1.1,0.8,2.3,1.3,3.5c0.4,1.2,1,2.4,1.5,3.6c0.1,0.3,0.2,0.7,0.1,1.1c-0.1,0.4,0,0.8,0.1,1.1c0.2,0.5,0.4,1,0.6,1.5
		c0.2,0.5,0.4,1.1,0.5,1.7c0.2,0.7,0.4,1.3,0.7,1.9c0.3,0.6,0.5,1.2,0.6,1.7c0.1,0.5,0.1,1-0.1,1.3c-0.2,0.4-0.7,0.6-1.4,0.8
		c-3.6,0.4-6.9,1.3-9.9,2.7c-0.2-0.2-0.3-0.2-0.5-0.1c-0.2,0.1-0.5,0.1-0.7,0.1c-0.1-0.3-0.3-0.5-0.7-0.6c0.1-0.4,0.1-0.8-0.1-1.1
		c-0.2-0.3-0.2-0.6-0.1-0.8c-0.1-0.1-0.2-0.1-0.3-0.1c-0.1,0-0.2-0.1-0.1-0.2l0.1-0.2c-0.7-3.9-1.7-7.9-3-12
		c-1.3-4.1-2.3-8.2-3.2-12.2c-0.4-2-0.9-4-1.4-6.1c-0.5-2.1-1.1-4.2-1.6-6.2c-0.6-2-1.1-4-1.6-5.8c-0.5-1.9-1-3.6-1.3-5.1
		c0-0.5,0-1-0.1-1.5c-0.1-0.5-0.3-1-0.7-1.3c0-0.4,0.1-0.7,0.3-0.9c0.2-0.2,0.3-0.5,0.3-0.8c0.2,0,0.4,0,0.4-0.1
		c0-0.1,0.1-0.2,0.4-0.2c0.1,0,0.2,0.1,0.2,0.1c0,0.1,0.1,0.1,0.2,0.1c0.5-0.4,1-0.7,1.7-1c0.7-0.2,1.4-0.5,2.1-0.7
		c0.7-0.2,1.5-0.4,2.2-0.6c0.7-0.2,1.4-0.4,2-0.7c0.4,0.1,0.8,0.2,1.4,0.3c0.5,0.1,0.8,0.4,0.7,1c0.6,1.2,1.1,2.6,1.5,4.2
		c0.4,1.6,0.7,3.1,0.9,4.4c0.4,1.1,0.8,2.2,1.1,3.3c0.3,1.1,0.6,2.2,0.9,3.2c1-3.1,1.9-6.3,2.9-9.5s1.8-6.4,2.7-9.4
		c0.6-0.7,1.3-1.2,2.3-1.6c0.9-0.4,1.9-0.6,3-0.9c1-0.2,2.1-0.5,3.2-0.7c1.1-0.2,2.1-0.6,3-1.1c0,0.3,0.1,0.5,0.3,0.4
		c0.2,0,0.3,0,0.5,0.2c0,1.1-0.1,2.1-0.3,3.1c-0.2,1-0.5,1.9-0.8,2.8c-0.3,0.9-0.6,1.8-1,2.7c-0.3,0.9-0.6,1.8-0.9,2.7
		c-0.9,3-1.7,5.8-2.6,8.7c-0.8,2.8-1.6,5.7-2.3,8.7c3.3,3.6,6.7,7.4,10.1,11.1c3.4,3.8,6.8,7.5,10.1,11.1c1,0.4,1.6,0.9,1.8,1.6
		C155.2,178.6,155.1,179.4,154.6,180.2z M173.9,127.9c-0.4,0.5-0.6,1.1-0.5,1.9c-2.2,0.4-4.4,1.1-6.6,1.9c-2.3,0.8-4.6,1.6-6.9,2.4
		c0.1,0.4,0.1,0.7,0.1,1c0,0.3,0,0.6,0.2,0.9c-0.2,0-0.3,0.1-0.4,0c0.1,1.1,0.2,2.1,0.4,3c0.2,0.9,0.2,1.8,0.2,2.6
		c0.3,0.2,0.4,0.4,0.3,0.7c-0.1,0.2,0,0.5,0.1,0.8c-0.2,0-0.3,0.1-0.4,0.2c1.8-0.4,3.7-0.9,5.8-1.5c2.1-0.6,4-1.1,5.7-1.5
		c0.2,0.1,0.4,0.3,0.6,0.4c0.2,0.1,0.4,0.2,0.6,0.2c0.2,0.8,0.4,1.5,0.5,2.3c0.1,0.8,0.4,1.5,0.8,2.3c0.1,0.7,0.3,1.4,0.6,2.2
		c0.3,0.8,0.5,1.5,0.5,2.2c0.1,0.7,0,1.3-0.3,1.9c-0.3,0.5-1,0.9-2.1,1.2c-0.3-0.2-0.6-0.2-1,0c-0.4,0.2-0.6,0.3-0.8,0.5
		c-0.5-0.1-1,0-1.5,0.1c-0.5,0.1-1,0.2-1.4,0.4c-0.5,0.2-0.9,0.3-1.4,0.4c-0.5,0.1-1,0.2-1.4,0.2c-0.6,0.4-1.3,0.7-2.3,0.9
		c0,0.9,0.1,1.7,0.3,2.6c0.2,0.8,0.4,1.7,0.7,2.5c0.3,0.8,0.5,1.7,0.8,2.6c0.3,0.9,0.5,1.8,0.6,2.9c0.1,0.2,0.4,0.2,0.8,0.1
		c0.4-0.1,0.7-0.2,0.7-0.5c1.1-0.2,2.2-0.4,3.4-0.7c1.2-0.3,2.4-0.7,3.6-1.1c1.2-0.4,2.4-0.8,3.5-1.3c1.1-0.4,2.2-0.8,3.1-1.2
		c0.7,0.1,1.2,0.4,1.5,1c0.3,0.6,0.6,1.2,0.8,1.9c0.2,0.7,0.3,1.5,0.4,2.2c0.1,0.7,0.3,1.4,0.5,1.9c0.4,0.6,0.7,1.2,0.8,2
		c0.1,0.8,0.1,1.5,0.1,2.1c-0.1,0.1-0.2,0.1-0.3,0c0-0.1-0.1-0.1-0.3,0c0.1,0.6,0,1-0.2,1.3c-0.9,0.2-1.9,0.4-2.9,0.6
		c-1,0.2-1.9,0.4-2.7,0.5c-0.3-0.2-0.6-0.2-1,0s-0.7,0.4-1,0.5c-1.9,0-3.7,0.3-5.2,0.7c-1.5,0.4-3.3,1-5.3,1.8l-0.1-0.3
		c-1.6,0.4-3.2,0.9-4.6,1.4c-1.4,0.5-2.9,1.1-4.4,1.9c-0.5-0.2-0.8-0.6-0.9-1c-0.1-0.5-0.3-0.9-0.6-1.2c0-0.1,0.1-0.2,0.3-0.3
		c-0.2-0.2-0.2-0.5-0.2-0.7c0-0.2-0.1-0.4-0.4-0.5c0.2-0.3,0.2-0.7,0-1.1c-0.1-0.4-0.2-0.8-0.1-1.2c0-0.1-0.1-0.2-0.2-0.2
		c-0.1,0-0.2,0-0.3,0c0-0.1,0.1-0.3,0.4-0.5c-0.4-1-0.7-2.1-0.8-3.1c-0.1-1-0.4-2-0.9-3c-0.6-2.7-1.1-5.4-1.6-8
		c-0.5-2.6-0.9-5.3-1.4-7.9c-0.5-2.6-1-5.3-1.6-7.9c-0.6-2.6-1.4-5.3-2.3-7.9c-0.1-0.6-0.2-1.2-0.3-1.8c-0.1-0.7-0.4-1.2-0.8-1.7
		c0.1-0.6,0-1.3-0.1-2c-0.2-0.7-0.4-1.2-0.8-1.6c0.1-0.1,0.1-0.1,0.2-0.1s0.2,0.1,0.2,0.1c-0.3-1-0.1-1.8,0.6-2.4
		c0.7-0.6,1.5-1,2.6-1.4c1.1-0.3,2.2-0.6,3.5-0.9c1.2-0.2,2.2-0.6,2.9-1c1.9-0.4,3.9-1,5.8-1.6c2-0.6,4.1-1.3,6.4-1.9
		c0.6-0.1,1.1-0.2,1.8-0.4c0.6-0.1,1-0.4,1.2-0.6c0.6-0.1,1.1-0.1,1.5,0.2c0.4,0.2,0.7,0.6,0.9,1c0.2,0.4,0.3,0.9,0.4,1.5
		c0.1,0.5,0.1,1,0.1,1.5c0.4,0.7,0.8,1.5,0.9,2.3C173.5,126,173.7,126.9,173.9,127.9z"/>
	<path d="M81.8,115.3c-0.1-1.8-0.2-3.6-0.4-5.3c-0.2-2.1-0.6-4.3-1.1-6.7c-0.6-2.4-1.5-4.5-2.6-6.5c-0.2-1-0.6-2-1.2-3
		c-0.6-1-1.3-1.8-1.9-2.5c-0.8-0.3-1.4-0.3-2.1-0.2c-0.6,0.1-1.2,0.4-1.7,0.8c-0.5,0.4-0.9,0.8-1.3,1.4c-0.4,0.5-0.8,1.1-1.1,1.5
		c0,0.2,0.1,0.3,0.2,0.3c0.1,0,0.1,0.1,0.1,0.2c-0.4,0.8-0.6,1.7-0.7,2.5c-0.1,0.9-0.1,1.7-0.1,2.6c0,0.9,0.1,1.7,0.2,2.6
		c0.1,0.8,0.2,1.6,0.2,2.4c0.2,0.7,0.4,1.5,0.7,2.4c0.3,0.9,0.5,1.6,0.5,2.3c0.2,0.7,0.5,1.5,0.7,2.5c0.2,0.9,0.5,1.9,0.7,2.8
		c0.3,0.9,0.6,1.8,1,2.6c0.4,0.8,0.9,1.4,1.5,1.8c0.4,0.6,0.9,1.1,1.5,1.4c0.7,0.3,1.4,0.4,2.1,0.4c0.7,0,1.4-0.1,2.1-0.4
		c0.7-0.3,1.3-0.6,1.7-1.1C81.5,118.7,81.8,117.1,81.8,115.3z"/>
	<path d="M201.9,135c-0.1-0.1-0.1-0.1-0.2,0c-0.1,0-0.1,0-0.2-0.1c-0.4-1.5-0.9-2.9-1.7-4.1c-0.8-1.2-1.8-2.3-2.8-3.2
		c-1.1-0.9-2.3-1.6-3.6-2.2c-1.3-0.5-2.7-0.8-4-0.8c-0.2,0.2-0.5,0.4-1,0.6c-0.5,0.2-0.9,0.3-1.2,0.4c1.4,5,2.8,10,4.2,14.9
		c1.4,4.9,3.1,10.1,5.2,15.4c0.8-0.2,1.6-0.5,2.4-0.7c0.8-0.3,1.6-0.6,2.3-1c0.7-0.4,1.3-0.8,1.8-1.4c0.5-0.6,0.8-1.3,0.9-2.1
		c0.4-1.1,0.6-2.3,0.7-3.7c0.1-1.3,0.1-2.7-0.1-4.1c-0.2-1.4-0.5-2.8-0.9-4.1C203.2,137.4,202.6,136.2,201.9,135z"/>
	<path d="M119.9,186.7l0,0.1C120.1,186.7,120.1,186.6,119.9,186.7z"/>
	<path d="M65.1,83.7c0.1,0.1,0.2,0.1,0.1-0.1C65.2,83.5,65.2,83.5,65.1,83.7z"/>
	<rect x="63.6" y="126.4" transform="matrix(0.964 -0.2658 0.2658 0.964 -31.3104 21.4764)" width="0.2" height="0.1"/>
</g>
</svg>
