<?xml version="1.0" encoding="utf-8"?>
<!-- Generator: Adobe Illustrator 27.4.0, SVG Export Plug-In . SVG Version: 6.00 Build 0)  -->
<svg version="1.1" id="Layer_1" xmlns="http://www.w3.org/2000/svg" xmlns:xlink="http://www.w3.org/1999/xlink" x="0px" y="0px"
	 viewBox="0 0 400 400" style="enable-background:new 0 0 400 400;" xml:space="preserve">
<path d="M374.8,264.1c-0.9-8.3-2-16.7-3.6-24.9c-2.5-13-5.2-26-8.2-38.9c-5.2-22.3-12.4-44-21.3-65.1c-8.7-20.8-19.3-40.7-32.4-59.1
	c-9.4-13.3-19.8-25.7-32.1-36.5c-8.9-7.8-18.4-14.6-28.9-20c-12-6.2-24.8-10.2-38.3-11.6c-11.1-1.1-22-0.6-32.8,1.9
	c-15.9,3.7-30.2,10.8-43.4,20.4c-12.4,9-23.1,19.7-32.9,31.5c-9.2,11.1-17.2,23.1-24.5,35.5c-8.5,14.5-15.5,29.7-21.7,45.3
	c-6.6,16.6-12,33.5-16.5,50.7c-4.1,15.8-7.4,31.8-10,47.9c-1.5,9.5-2.8,19-3.8,28.5c-0.8,7.3-1.3,14.6-1.8,21.9
	c-0.6,9.7-1.1,19.5-1.6,29.2c0.1,0,0.2,0,0.3,0c0,11.9-0.5,23.8,1.9,35.6c1.6,7.7,3.7,15.3,7.6,22.2c6.5,11.8,17.7,15,29.3,13.5
	c5.1-0.6,9.7-3,14-5.7c7.4-4.7,13.8-10.8,20.5-16.5c4.3-3.6,8.6-7.1,13.1-10.3c4.7-3.4,10-5.4,15.7-5.9c8.1-0.7,15.5,1.2,22.4,5.5
	c4.8,3,8.8,6.9,12.8,10.7c5,4.6,9.9,9.3,15.3,13.4c10,7.6,21.2,10.1,33.6,8.2c7.4-1.1,13.9-4.4,19.6-9c4.8-3.9,9.4-8.1,13.9-12.3
	c5.1-4.7,10.1-9.5,16.4-12.6c10.4-5.2,20.8-5.7,31.3-0.1c5,2.7,9.5,6.1,13.8,9.8c7.2,6.2,14.2,12.7,22.1,18.1c5.9,4,12.2,6.8,19.5,7
	c8.3,0.1,15.8-1.9,21.4-8.5c2.7-3.1,4.7-6.6,6.2-10.4c5.1-12.5,7.2-25.6,7.1-39.1c-0.1-11.1-0.1-22.2-0.8-33.2
	C377.5,288.8,376.2,276.5,374.8,264.1z M172.6,176.6c0.1,18.8-4.1,34.4-12.8,48.7c-4.2,6.9-9.5,13-16.5,17.4
	c-13.2,8.4-27.8,5.4-36.5-7.6c-4.4-6.5-6.8-13.8-7.9-21.6c-2.1-14.5-0.5-28.7,4.3-42.5c3.7-10.7,9.1-20.3,17.3-28.3
	c4.6-4.4,9.8-8,16.1-9.5c9.9-2.3,18.1,0.7,24.7,8.3c5.4,6.2,8.3,13.7,10,21.7C172.4,168.3,172.8,173.5,172.6,176.6z M296,228
	c-2.2,5.1-5.2,9.6-9.4,13.2c-8.4,7.2-19,8.1-29.1,2.6c-7-3.8-12.4-9.4-16.8-15.9c-7-10.3-10.9-21.8-13-34c-1.2-6.7-1.3-13.5-1-20.3
	c0.5-10.7,3.1-20.8,9.4-29.7c4.4-6.2,10.1-10.5,17.9-11.4c7.2-0.8,13.6,1.3,19.5,5.3c8,5.5,13.7,13,18,21.5
	c5.8,11.3,8.8,23.4,9.6,36.1c0.1,1.3,0.2,2.6,0.3,3.9C301.4,209.3,299.9,218.9,296,228z"/>
</svg>
