<?xml version="1.0" encoding="utf-8"?>
<!-- Generator: Adobe Illustrator 27.4.0, SVG Export Plug-In . SVG Version: 6.00 Build 0)  -->
<svg version="1.1" id="Layer_1" xmlns="http://www.w3.org/2000/svg" xmlns:xlink="http://www.w3.org/1999/xlink" x="0px" y="0px"
	 viewBox="0 0 400 400" style="enable-background:new 0 0 400 400;" xml:space="preserve">
<style type="text/css">
	.st0{fill:none;}
</style>
<g>
	<path class="st0" d="M199.6,88.2h-159v161h94.9h12.4l25.7,25.7l26,26v-0.2l0.4,0.4l0.4-0.4v0.2l26-26l25.7-25.7h12.4h94.9v-161
		h-159H199.6z M166.5,197.8l-18.2,18.2l-29.1-29.1l-29.1,29.1l-18.2-18.2l29.1-29.1l-29.1-29.1l18.2-18.2l29.1,29.1l29.1-29.1
		l18.2,18.2l-29.1,29.1L166.5,197.8z M233.5,139.7l18.2-18.2l29.1,29.1l29.1-29.1l18.2,18.2l-29.1,29.1l29.1,29.1l-18.2,18.2
		l-29.1-29.1l-29.1,29.1l-18.2-18.2l29.1-29.1L233.5,139.7z"/>
	<polygon points="148.4,121.5 119.3,150.6 90.3,121.5 72.1,139.7 101.2,168.7 72.1,197.8 90.3,215.9 119.3,186.9 148.4,215.9 
		166.5,197.8 137.5,168.7 166.5,139.7 	"/>
	<path d="M381.6,62.6h-22.3h-159h-0.7h-159H18.4H15v212.3h3.4h22.3h96.6l62.5,62.5l0.1-0.1l0.1,0.1l0.1-0.1l0.1,0.1l0.1-0.1l0.1,0.1
		l62.5-62.5h96.6h22.3h3.4V62.6H381.6z M359.4,249.2h-94.9h-12.4l-25.7,25.7l-26,26v-0.2L200,301l-0.4-0.4v0.2l-26-26l-25.7-25.7
		h-12.4H40.6v-161h159h0.7h159V249.2z"/>
	<polygon points="251.6,215.9 280.7,186.9 309.7,215.9 327.9,197.8 298.8,168.7 327.9,139.7 309.7,121.5 280.7,150.6 251.6,121.5 
		233.5,139.7 262.5,168.7 233.5,197.8 	"/>
</g>
</svg>
