<?xml version="1.0" encoding="utf-8"?>
<!-- Generator: Adobe Illustrator 27.4.0, SVG Export Plug-In . SVG Version: 6.00 Build 0)  -->
<svg version="1.1" id="Layer_1" xmlns="http://www.w3.org/2000/svg" xmlns:xlink="http://www.w3.org/1999/xlink" x="0px" y="0px"
	 viewBox="0 0 500 500" style="enable-background:new 0 0 500 500;" xml:space="preserve">
<style type="text/css">
	.st0{fill:#F50D38;}
</style>
<g>
	<path class="st0" d="M460.3,203.5H284.5l34.3-94.2l12.8-35.2H85.5l-12.8,35.2L17.4,261.3L4.6,296.5h70.3H110l12.8-35.2l8.2-22.6
		h105.5l-55.3,151.9l-0.5,1.3l-12.3,33.9H186h193.4h35.2l80.9-222.2H460.3z M273.1,138.3l-2.3,6.3l-8.7,23.9l-1.8,5l-11,30.1h-35.2
		h-70.3h-11.3h-23.9l-21,57.8H52.5l21-57.8l11-30.1l1.8-5l8.7-23.9l2.3-6.3l10.5-28.9H143h105.5h35.2L273.1,138.3z M404.5,356.7
		l-12.3,33.9H357h-35.2h-35.2h-35.2h-35.2l12.3-33.9l43-118h35.2l-43,118H299l43-118h35.2l-43,118h35.2l43-118h35.2L404.5,356.7z"/>
	<polygon class="st0" points="130.2,144.5 121.5,168.4 119.2,174.7 224.7,174.7 227,168.4 235.7,144.5 237.5,139.5 132,139.5 	"/>
</g>
</svg>
