<?xml version="1.0" encoding="utf-8"?>
<!-- Generator: Adobe Illustrator 27.4.0, SVG Export Plug-In . SVG Version: 6.00 Build 0)  -->
<svg version="1.1" id="Layer_1" xmlns="http://www.w3.org/2000/svg" xmlns:xlink="http://www.w3.org/1999/xlink" x="0px" y="0px"
	 viewBox="0 0 500 500" style="enable-background:new 0 0 500 500;" xml:space="preserve">
<style type="text/css">
	.st0{fill:#020001;}
</style>
<g>
	<path class="st0" d="M459.8,203.8H284l34.3-94.2l12.8-35.2H85l-12.8,35.2l-55.3,152L4.1,296.7h70.3h35.2l12.8-35.2l8.2-22.6H236
		l-55.3,151.9l-0.5,1.3L167.9,426h17.6h193.4H414l80.9-222.2H459.8z M272.6,138.5l-2.3,6.3l-8.7,23.9l-1.8,5l-11,30.1h-35.2h-70.3
		H132h-23.9l-21,57.8H52l21-57.8l11-30.1l1.8-5l8.7-23.9l2.3-6.3l10.5-28.9h35.2H248h35.2L272.6,138.5z M404,357l-12.3,33.9h-35.2
		h-35.2h-35.2h-35.2h-35.2L228,357l43-118h35.2l-43,118h35.2l43-118h35.2l-43,118h35.2l43-118H447L404,357z"/>
	<polygon class="st0" points="129.7,144.8 121,168.7 118.7,174.9 224.2,174.9 226.5,168.7 235.2,144.8 237,139.8 131.5,139.8 	"/>
</g>
</svg>
